<svg width="48" height="48" viewBox="0 0 48 48" fill="none" xmlns="http://www.w3.org/2000/svg">
<path d="M25.3663 11.5679L29.0129 3.19995H27.834L24.1973 11.5679H25.3663Z" fill="#F6F6F6"/>
<path fill-rule="evenodd" clip-rule="evenodd" d="M33.5294 44.6183L32.3111 44.882H40.9333L40.2508 44.6226C39.7117 44.3696 39.2295 44.0112 38.8328 43.5688C38.4362 43.1265 38.1332 42.6092 37.9421 42.0478C36.4478 38.7096 34.0192 33.2934 31.8017 28.3478C29.2527 22.6631 26.9825 17.6 26.7302 17.029C26.5138 16.5391 26.2994 16.0786 26.0921 15.6331C25.8474 15.1075 25.6125 14.6027 25.3952 14.095V14.0152H20.5069V14.2846C21.0846 14.3795 21.6111 14.6715 21.9957 15.1104C22.3804 15.5493 22.5993 16.1077 22.6148 16.6897V16.8294C22.6198 16.9258 22.6198 17.0224 22.6148 17.1188C22.5931 17.4086 22.5111 17.6906 22.3739 17.9471L20.0853 23.0767C18.6098 26.4098 17.0741 29.8528 15.5383 33.2359L15.0063 34.4035C14.5926 35.3325 14.1688 36.2565 13.7456 37.179C13.5733 37.5546 13.4011 37.9301 13.2297 38.3055C13.0391 38.7243 12.8486 39.1729 12.6581 39.6216L12.6576 39.6228L12.4869 40.0419C12.3364 40.4112 12.1758 40.7904 11.9851 41.1497C11.6626 41.9849 11.1448 42.7318 10.4746 43.3287C9.80441 43.9256 9.00097 44.3555 8.13064 44.5826L7.06665 44.8521H15.2473V44.5826C14.7969 44.5896 14.3511 44.4923 13.9452 44.2983C13.5392 44.1043 13.1843 43.819 12.9085 43.4649C12.7599 43.151 12.688 42.8066 12.6984 42.4598C12.7089 42.113 12.8015 41.7735 12.9687 41.469L15.3777 36.08C15.407 36.0276 15.4295 35.9752 15.4511 35.9247C15.4665 35.8887 15.4815 35.8538 15.4982 35.8206C15.5121 35.7929 15.532 35.7557 15.5546 35.7135C15.5973 35.6338 15.6495 35.5362 15.6889 35.4513C15.7848 35.3187 15.9076 35.2075 16.0493 35.125C16.1911 35.0425 16.3487 34.9905 16.512 34.9723H30.3839C30.5471 34.9905 30.7047 35.0425 30.8465 35.125C30.9883 35.2075 31.1111 35.3187 31.2069 35.4513L31.2872 35.621C31.4378 35.9403 31.5783 36.2497 31.7088 36.569C32.4616 38.2356 33.2546 40.0719 34.2182 42.3372C34.4452 42.7695 34.5328 43.2608 34.4691 43.7444C34.3869 43.9526 34.2584 44.1398 34.0933 44.2918C33.9318 44.4406 33.7392 44.5521 33.5294 44.6183ZM30.2617 33.8749C30.2983 33.8558 30.3299 33.8283 30.3538 33.7947L30.4039 33.7049C30.4215 33.671 30.4307 33.6333 30.4307 33.5951C30.4307 33.5569 30.4215 33.5193 30.4039 33.4853C29.9662 32.5039 29.4796 31.4146 28.9721 30.2788C27.8388 27.7421 26.602 24.9736 25.5759 22.6575L23.7089 18.516C23.6903 18.4742 23.659 18.4392 23.6194 18.416C23.5798 18.3927 23.5339 18.3823 23.4881 18.3862C23.4414 18.3846 23.3952 18.397 23.3558 18.422C23.3164 18.4469 23.2855 18.4832 23.2672 18.5259L16.4919 33.5652C16.4742 33.6009 16.465 33.6402 16.465 33.68C16.465 33.7198 16.4742 33.759 16.4919 33.7947C16.5121 33.8295 16.5414 33.8582 16.5768 33.8775C16.6122 33.8969 16.6523 33.9062 16.6927 33.9045H30.143C30.1843 33.9041 30.225 33.894 30.2617 33.8749Z" fill="#F6F6F6"/>
</svg>
