<svg width="240" height="48" viewBox="0 0 240 48" fill="none" xmlns="http://www.w3.org/2000/svg">
<g clip-path="url(#clip0_32_72)">
<path d="M69.1041 24.9375C67.7215 23.4414 65.9053 22.4452 63.9268 22.0979L63.4037 21.9713L64.0422 21.7657C64.9279 21.4998 65.7593 21.071 66.4962 20.5001C66.9895 20.0966 67.3768 19.5725 67.6227 18.9756C67.8686 18.3788 67.9653 17.7282 67.904 17.083C67.873 16.3772 67.6719 15.6903 67.3187 15.0842C66.9656 14.4781 66.4714 13.9717 65.8808 13.6106C64.9112 13.0082 63.8178 12.6479 62.6882 12.5586H61.0343H50.2643L50.6874 12.7563C51.1063 12.9739 51.4507 13.3176 51.6747 13.7415C51.8987 14.1655 51.9917 14.6496 51.9413 15.1293C51.9413 21.4572 51.9798 28.3072 51.9798 33.5989C51.9798 34.7695 51.9798 36.0825 50.6028 36.8419L50.2412 37.0396H50.6412C50.6412 37.0396 52.4337 37.0396 54.6261 37.0396C56.9955 37.0396 59.8803 37.0397 61.6728 36.9606C63.2597 36.9 64.831 36.6152 66.3423 36.1142C67.387 35.7588 68.3272 35.1372 69.0751 34.3073C69.823 33.4775 70.3544 32.4663 70.6196 31.3683C70.9165 30.2521 70.9332 29.0767 70.6681 27.952C70.4031 26.8274 69.865 25.7902 69.1041 24.9375ZM54.4877 20.8956C54.4877 20.1046 54.4877 19.3532 54.4877 18.6017V13.9666C54.4877 13.5552 54.5569 13.3575 54.9877 13.3575H61.0958C62.0934 13.347 63.0593 13.7173 63.8067 14.3967C64.5541 15.0761 65.03 16.0163 65.1423 17.0356V17.0277C65.2884 18.8707 64.6807 20.3103 63.496 20.9826C62.5944 21.3556 61.629 21.5385 60.6573 21.5205H54.98C54.5569 21.5205 54.4877 21.3306 54.48 20.951L54.4877 20.8956ZM68.0117 30.4349C67.7732 32.8079 67.2424 34.3898 65.0884 35.4181L64.9576 35.4893C63.5583 35.8964 62.1178 36.1353 60.665 36.2012H54.9108C54.5723 36.2012 54.48 36.0272 54.4877 35.5447V35.0068C54.4877 33.6859 54.4877 32.3412 54.4877 31.0519V28.0224C54.4877 26.5591 54.4877 25.0483 54.4877 23.5929V22.9838C54.4644 22.8162 54.5058 22.6459 54.6031 22.5092C54.6564 22.4644 54.7179 22.4308 54.7839 22.4104C54.8499 22.3901 54.9191 22.3833 54.9877 22.3906H60.5881C62.0812 22.4547 63.5498 22.8033 64.9192 23.4188C66.9116 24.2968 68.0732 26.5116 68.0732 29.3275C68.0715 29.7028 68.0509 30.0777 68.0117 30.4507" fill="#131411"/>
<path d="M30.3708 36.8022L29.4168 37.0158H36.025L35.5019 36.8101C35.0888 36.6096 34.7192 36.3256 34.4152 35.9749C34.1112 35.6243 33.879 35.2143 33.7325 34.7694C31.2708 29.0822 25.5012 15.7857 25.1396 14.9393C24.7781 14.093 24.4242 13.3574 24.1165 12.6138V12.5505H20.3701V12.7641C20.8128 12.8393 21.2163 13.0707 21.5111 13.4186C21.8059 13.7665 21.9737 14.2091 21.9856 14.6704V14.7811C21.9894 14.8575 21.9894 14.9341 21.9856 15.0105C21.9689 15.2402 21.9061 15.4637 21.8009 15.667L20.047 19.7327C18.9161 22.3746 17.7391 25.1035 16.5621 27.785L16.1544 28.7104C15.7082 29.7466 15.2466 30.7749 14.7927 31.8032C14.6466 32.1354 14.5004 32.4913 14.3543 32.8473L14.2235 33.1795C14.1081 33.4722 13.985 33.7727 13.8388 34.0575C13.5917 34.7195 13.1949 35.3115 12.6812 35.7846C12.1676 36.2577 11.5518 36.5984 10.8848 36.7785L10.0693 36.992H16.339V36.7785C15.9939 36.784 15.6522 36.7069 15.3411 36.5531C15.03 36.3993 14.7579 36.1732 14.5466 35.8926C14.4327 35.6437 14.3775 35.3708 14.3856 35.0959C14.3936 34.821 14.4646 34.552 14.5927 34.3106L16.2852 30.3952L16.439 30.0393C16.4775 29.9681 16.5006 29.8969 16.5313 29.8336C16.5621 29.7703 16.6313 29.6438 16.6775 29.541C16.751 29.4358 16.8451 29.3477 16.9537 29.2823C17.0624 29.2169 17.1832 29.1757 17.3083 29.1613C17.4237 29.1613 17.5545 29.1613 17.6776 29.1613H27.5629C27.7013 29.1613 27.8244 29.1613 27.9398 29.1613C28.0649 29.1757 28.1857 29.2169 28.2944 29.2823C28.403 29.3477 28.4972 29.4358 28.5706 29.541L28.6322 29.6754C28.7476 29.9285 28.8553 30.1737 28.9553 30.4269C29.5322 31.7478 30.14 33.2032 30.8785 34.9988C31.0524 35.3414 31.1196 35.7308 31.0708 36.1141C31.0078 36.2791 30.9093 36.4275 30.7828 36.548C30.6562 36.6685 30.5049 36.7581 30.34 36.8101M27.9167 28.2279C27.8985 28.2545 27.8743 28.2763 27.8462 28.2914C27.8181 28.3066 27.7869 28.3146 27.7552 28.3149H17.4468C17.4159 28.3163 17.3851 28.3089 17.358 28.2935C17.3309 28.2782 17.3084 28.2555 17.2929 28.2279C17.2793 28.1996 17.2723 28.1685 17.2723 28.137C17.2723 28.1054 17.2793 28.0743 17.2929 28.046L22.4856 16.1258C22.4996 16.0919 22.5233 16.0632 22.5535 16.0434C22.5837 16.0236 22.619 16.0137 22.6548 16.0151C22.6899 16.012 22.7251 16.0202 22.7555 16.0386C22.7858 16.0571 22.8098 16.0848 22.8241 16.1179L24.2549 19.4005C25.3935 22.0582 26.8705 25.4674 27.9552 27.9827C27.9687 28.0096 27.9757 28.0394 27.9757 28.0697C27.9757 28.1 27.9687 28.1298 27.9552 28.1567" fill="#131411"/>
<path d="M212.845 33.8676C212.845 28.4098 212.845 15.5326 212.845 15.1608C212.877 14.7635 212.817 14.3641 212.671 13.9946C212.526 13.6252 212.298 13.2959 212.007 13.033C211.842 12.907 211.664 12.8008 211.476 12.7166L211.022 12.511H217.03L216.638 12.7087C216.473 12.7938 216.319 12.8973 216.176 13.0172C215.353 13.6975 215.345 14.7258 215.345 15.6275C215.345 21.1644 215.345 31.9772 215.345 32.436V32.8473C215.345 33.3614 215.345 34.0496 215.345 34.3343C215.274 34.8405 215.372 35.3565 215.622 35.7987C215.872 36.2409 216.26 36.5833 216.722 36.7706L217.184 36.9762H211.168L211.56 36.7785C211.724 36.6924 211.879 36.589 212.022 36.47C212.845 35.7897 212.845 34.7615 212.853 33.8597" fill="#131411"/>
<path d="M230.008 25.7285C230.008 25.9788 229.935 26.2235 229.8 26.4316C229.665 26.6397 229.473 26.8019 229.248 26.8977C229.023 26.9935 228.775 27.0186 228.537 26.9697C228.298 26.9209 228.079 26.8004 227.906 26.6234C227.734 26.4464 227.617 26.2209 227.57 25.9754C227.522 25.7299 227.546 25.4754 227.64 25.2442C227.733 25.0129 227.891 24.8152 228.093 24.6762C228.295 24.5371 228.533 24.4629 228.777 24.4629C229.103 24.4629 229.416 24.5962 229.647 24.8336C229.878 25.0709 230.008 25.3928 230.008 25.7285Z" fill="#131411"/>
<path d="M230.008 35.7265C230.008 35.9768 229.935 36.2215 229.8 36.4296C229.665 36.6377 229.473 36.8 229.248 36.8957C229.023 36.9915 228.775 37.0166 228.537 36.9678C228.298 36.9189 228.079 36.7984 227.906 36.6214C227.734 36.4444 227.617 36.2189 227.57 35.9734C227.522 35.7279 227.546 35.4735 227.64 35.2422C227.733 35.0109 227.891 34.8133 228.093 34.6742C228.295 34.5352 228.533 34.4609 228.777 34.4609C229.103 34.4609 229.416 34.5943 229.647 34.8316C229.878 35.069 230.008 35.3909 230.008 35.7265Z" fill="#131411"/>
<path d="M26.8705 4L24.0627 10.5968H23.1626L25.9628 4H26.8705Z" fill="#131411"/>
<path d="M127.716 36.9527C127.104 36.9192 126.494 36.8425 125.893 36.7233C124.428 36.4296 123.033 35.8467 121.785 35.0068C120.521 34.1812 119.446 33.086 118.63 31.7954C117.659 30.1986 117.059 28.3933 116.876 26.5195C116.838 26.1161 116.815 25.7285 116.784 25.3093C116.784 25.2223 116.784 25.1353 116.784 25.0483V24.1466C116.784 24.0358 116.784 23.9251 116.823 23.8143C116.848 23.1822 116.92 22.5529 117.038 21.9318C117.349 20.3094 117.98 18.7696 118.892 17.4074C119.669 16.2189 120.678 15.209 121.854 14.4412C123.478 13.386 125.325 12.7484 127.239 12.5823C127.516 12.5823 128.539 12.519 128.777 12.519C129.016 12.519 129.708 12.5191 130.039 12.5823C130.632 12.631 131.221 12.7262 131.801 12.8671C133.534 13.2462 135.153 14.0463 136.524 15.2005C137.867 16.3194 138.923 17.7585 139.601 19.3927C140.163 20.808 140.485 22.3113 140.555 23.8381C140.555 24.1703 140.555 24.4946 140.555 24.8268C140.571 25.6215 140.515 26.416 140.386 27.1998C140.154 28.6396 139.671 30.0247 138.963 31.2892C138.356 32.3706 137.576 33.3387 136.655 34.1526C135.535 35.1453 134.225 35.8839 132.808 36.3199C132.137 36.55 131.447 36.7193 130.747 36.8261C129.727 36.9662 128.697 37.0086 127.67 36.9527M137.793 24.9376C137.793 24.3206 137.747 23.7036 137.693 23.0866C137.62 22.317 137.497 21.5533 137.324 20.8007C137.045 19.5648 136.584 18.3803 135.955 17.2887C135.413 16.3562 134.69 15.5484 133.832 14.9157C132.571 13.9781 131.077 13.4294 129.524 13.3338C128.899 13.2863 128.271 13.2863 127.646 13.3338C126.924 13.3874 126.213 13.5417 125.531 13.7925C124.263 14.2393 123.128 15.0159 122.238 16.0469C121.664 16.7202 121.184 17.4739 120.815 18.2853C120.247 19.5094 119.868 20.8171 119.692 22.1612C119.595 22.8453 119.536 23.5346 119.515 24.2257C119.463 25.4124 119.543 26.6012 119.754 27.7693C119.988 29.1106 120.422 30.4071 121.038 31.6135C121.428 32.3856 121.925 33.0945 122.515 33.7175C123.97 35.1935 125.919 36.0424 127.962 36.0905C128.27 36.0905 128.585 36.0905 128.9 36.0905C129.539 36.0995 130.177 36.0332 130.801 35.8927C131.95 35.6412 133.032 35.1336 133.97 34.4057C134.723 33.8139 135.367 33.0878 135.87 32.2621C136.887 30.6122 137.514 28.7403 137.701 26.7964C137.774 26.1665 137.805 25.5322 137.793 24.898" fill="#131411"/>
<path d="M172.857 14.8444C171.628 13.5982 170.032 12.8055 168.319 12.5901C167.972 12.5505 167.665 12.5189 167.365 12.511H154.864L155.295 12.7166C155.68 12.9233 156.003 13.2362 156.225 13.6203C156.448 14.0044 156.563 14.4447 156.556 14.8918C156.602 15.5088 156.602 16.1416 156.61 16.7586V21.1565C156.61 25.3329 156.61 29.6596 156.61 33.6383V33.7253C156.61 34.9196 156.61 36.0508 155.295 36.7864L154.941 36.9841H160.956L160.518 36.7785C160.089 36.5988 159.727 36.2836 159.483 35.8784C159.24 35.4732 159.128 34.999 159.164 34.5242C159.164 32.9422 159.11 31.115 159.103 29.3511C159.103 28.1804 159.103 27.0414 159.064 25.9973C159.064 25.7126 159.179 25.5623 159.564 25.5623H160.187C162.149 25.5623 164.164 25.6018 166.141 25.4911H166.418H166.534C167.912 25.4083 169.271 25.126 170.573 24.6526C171.485 24.3167 172.298 23.7428 172.93 22.9872C173.563 22.2315 173.993 21.32 174.18 20.3418C174.279 19.882 174.328 19.4125 174.327 18.9417C174.364 17.4512 173.84 16.0033 172.865 14.8998M159.056 14.5755V13.9664C159.056 13.563 159.141 13.3811 159.564 13.3811H167.042C167.828 13.3628 168.605 13.5651 169.288 13.9664C170.047 14.4586 170.663 15.1531 171.069 15.9762C171.476 16.7993 171.658 17.7203 171.596 18.6411C171.595 19.4437 171.486 20.2422 171.273 21.0141C171.046 21.9003 170.61 22.7153 170.003 23.3871C169.234 24.1781 167.326 24.7001 164.903 24.7001H159.518C159.095 24.7001 159.01 24.5024 159.003 24.1069V23.2289C159.003 23.039 159.003 22.8571 159.003 22.6752C159.003 21.7576 159.003 20.8322 159.003 19.9146V16.7902C159.003 16.0546 159.003 15.319 159.003 14.5834" fill="#131411"/>
<path d="M205.583 29.201C205.386 28.2241 204.955 27.3132 204.329 26.5512C203.695 25.8014 202.885 25.232 201.975 24.898C200.673 24.4174 199.31 24.1323 197.929 24.0516H197.575C195.598 23.933 193.574 23.9567 191.628 23.9805H191.028C190.605 23.9805 190.52 23.8302 190.49 23.5454C190.49 22.5013 190.49 21.3623 190.49 20.1916C190.49 18.4277 190.528 16.6084 190.559 15.0186C190.524 14.5428 190.637 14.0679 190.881 13.6626C191.126 13.2573 191.49 12.9426 191.92 12.7642L192.351 12.5586H186.343L186.697 12.7642C187.997 13.4919 188.005 14.6231 188.013 15.8254V15.9045C188.013 19.8594 188.013 24.2098 188.013 28.3862V32.792C188.013 33.4011 188.013 34.0339 187.959 34.6509C187.97 35.0989 187.857 35.5411 187.634 35.926C187.41 36.311 187.086 36.623 186.697 36.8261L186.274 37.0317H198.752C199.076 37.0238 199.4 36.9974 199.721 36.9526C201.435 36.7452 203.033 35.9545 204.26 34.7062C204.885 33.9713 205.331 33.0932 205.56 32.1453C205.789 31.1973 205.794 30.2068 205.575 29.2563M198.436 36.217H190.959C190.536 36.217 190.459 36.0272 190.451 35.6396V35.0226C190.451 34.287 190.451 33.5514 190.451 32.8158V29.6914C190.451 28.7738 190.451 27.8484 190.451 26.9387C190.451 26.7489 190.451 26.567 190.451 26.3771V25.4991C190.451 25.1036 190.543 24.9059 190.967 24.9059H196.352C198.775 24.9059 200.69 25.3963 201.46 26.2269C202.062 26.9006 202.495 27.7151 202.721 28.5998C202.933 29.3723 203.044 30.1702 203.052 30.9728C203.112 31.8945 202.929 32.8158 202.523 33.6398C202.117 34.4638 201.502 35.1601 200.744 35.6554C200.056 36.0495 199.278 36.2487 198.49 36.2328" fill="#131411"/>
<path d="M157.572 12.7245V12.511H160.757V12.7245H157.572Z" fill="#131411"/>
<path d="M103.899 13.136V13.1835C103.903 13.2282 103.903 13.2732 103.899 13.3179C103.899 15.0502 103.899 16.2762 103.899 16.2762V16.5689L103.722 16.3474C103.35 15.8524 102.912 15.4131 102.422 15.0423C100.206 13.4603 98.9602 13.3417 95.6907 13.31C95.206 13.31 95.1599 14.0456 95.1599 14.3541V14.9078C95.1599 17.7079 95.1599 20.5159 95.1599 23.3318C95.1599 26.828 95.1599 30.3347 95.1599 33.852C95.1599 34.9673 95.1599 36.1221 96.4831 36.7786L96.8831 36.9843H91.0134L91.4135 36.8024C92.7213 36.1458 92.729 34.991 92.7366 33.8757C92.7366 30.3637 92.7366 26.857 92.7366 23.3556C92.7366 20.5397 92.7366 17.7317 92.7366 14.9316V14.3779C92.7366 14.0694 92.6828 13.3338 92.1981 13.3338C88.9287 13.3338 87.6824 13.5078 85.4669 15.066C84.9867 15.4319 84.5593 15.866 84.1976 16.3553L84.0053 16.5768V16.3C84.0053 16.3 84.0053 15.0739 84.0053 13.3259C83.9976 13.2867 83.9976 13.2464 84.0053 13.2072V13.1677C84.0053 12.5507 84.5361 12.5586 84.8822 12.5586H103.076C103.43 12.5586 103.845 12.5586 103.907 13.1597" fill="#131411"/>
</g>
<defs>
<clipPath id="clip0_32_72">
<rect width="220" height="33" fill="white" transform="translate(10 4)"/>
</clipPath>
</defs>
</svg>
