<svg width="48" height="48" viewBox="0 0 48 48" fill="none" xmlns="http://www.w3.org/2000/svg">
<path d="M25.3665 11.5679L29.0131 3.19995H27.8342L24.1976 11.5679H25.3665Z" fill="#131411"/>
<path fill-rule="evenodd" clip-rule="evenodd" d="M33.5297 44.6183L32.3113 44.882H40.9336L40.251 44.6226C39.712 44.3696 39.2297 44.0112 38.8331 43.5688C38.4364 43.1265 38.1335 42.6092 37.9424 42.0478C36.448 38.7096 34.0195 33.2934 31.8019 28.3478C29.2529 22.6631 26.9827 17.6 26.7304 17.029C26.514 16.5391 26.2997 16.0786 26.0923 15.6331C25.8477 15.1075 25.6127 14.6027 25.3955 14.095V14.0152H20.5072V14.2846C21.0849 14.3795 21.6113 14.6715 21.996 15.1104C22.3807 15.5493 22.5996 16.1077 22.6151 16.6897V16.8294C22.6201 16.9258 22.6201 17.0224 22.6151 17.1188C22.5934 17.4086 22.5113 17.6906 22.3741 17.9471L20.0856 23.0767C18.6101 26.4098 17.0743 29.8528 15.5386 33.2359L15.0066 34.4035C14.5929 35.3325 14.169 36.2565 13.7458 37.179C13.5735 37.5546 13.4013 37.9301 13.2299 38.3055C13.0394 38.7243 12.8488 39.1729 12.6583 39.6216L12.6578 39.6228L12.4872 40.0419C12.3366 40.4112 12.176 40.7904 11.9853 41.1497C11.6628 41.9849 11.1451 42.7318 10.4749 43.3287C9.80466 43.9256 9.00121 44.3555 8.13089 44.5826L7.06689 44.8521H15.2475V44.5826C14.7972 44.5896 14.3513 44.4923 13.9454 44.2983C13.5395 44.1043 13.1845 43.819 12.9088 43.4649C12.7602 43.151 12.6882 42.8066 12.6987 42.4598C12.7091 42.113 12.8017 41.7735 12.969 41.469L15.378 36.08C15.4073 36.0276 15.4297 35.9752 15.4514 35.9247C15.4668 35.8887 15.4817 35.8538 15.4984 35.8206C15.5123 35.7929 15.5322 35.7557 15.5548 35.7135C15.5975 35.6338 15.6498 35.5362 15.6892 35.4513C15.785 35.3187 15.9078 35.2075 16.0496 35.125C16.1913 35.0425 16.349 34.9905 16.5122 34.9723H30.3841C30.5474 34.9905 30.705 35.0425 30.8468 35.125C30.9885 35.2075 31.1113 35.3187 31.2072 35.4513L31.2875 35.621C31.438 35.9403 31.5786 36.2497 31.7091 36.569C32.4619 38.2356 33.2548 40.0719 34.2184 42.3372C34.4454 42.7695 34.533 43.2608 34.4694 43.7444C34.3871 43.9526 34.2587 44.1398 34.0936 44.2918C33.932 44.4406 33.7395 44.5521 33.5297 44.6183ZM30.2619 33.8749C30.2986 33.8558 30.3301 33.8283 30.354 33.7947L30.4042 33.7049C30.4218 33.671 30.431 33.6333 30.431 33.5951C30.431 33.5569 30.4218 33.5193 30.4042 33.4853C29.9665 32.5039 29.4798 31.4146 28.9724 30.2788C27.8391 27.7421 26.6022 24.9736 25.5761 22.6575L23.7091 18.516C23.6905 18.4742 23.6592 18.4392 23.6196 18.416C23.58 18.3927 23.5341 18.3823 23.4883 18.3862C23.4416 18.3846 23.3955 18.397 23.3561 18.422C23.3166 18.4469 23.2857 18.4832 23.2675 18.5259L16.4921 33.5652C16.4744 33.6009 16.4652 33.6402 16.4652 33.68C16.4652 33.7198 16.4744 33.759 16.4921 33.7947C16.5123 33.8295 16.5417 33.8582 16.5771 33.8775C16.6125 33.8969 16.6525 33.9062 16.6929 33.9045H30.1432C30.1846 33.9041 30.2253 33.894 30.2619 33.8749Z" fill="#131411"/>
</svg>
