<svg width="204" height="34" viewBox="0 0 204 34" fill="none" xmlns="http://www.w3.org/2000/svg">
<path d="M54.8011 18.9967C53.6389 17.7087 52.1622 16.9125 50.0046 16.4206C49.8891 16.3946 49.69 16.3494 49.5166 16.3041C49.69 16.2523 49.9018 16.1877 50.1074 16.1165C50.7045 15.9093 51.6934 15.5662 52.3868 14.9644C53.2857 14.2911 53.7737 13.1262 53.6901 11.8576C53.6003 10.4985 52.9005 9.32051 51.8152 8.70559C51.0575 8.27829 49.9275 7.76072 48.8552 7.74763C48.4057 7.74109 47.8857 7.73481 47.3206 7.72827H41.9786C41.1438 7.72827 40.3669 7.73481 39.712 7.74109C38.5177 7.74109 37.7281 7.74763 37.7281 7.74763L37.298 7.75418L37.6897 7.93551C38.4601 8.29138 38.8518 9.00991 38.8518 10.0715C38.884 15.8062 38.8902 22.0521 38.8902 26.861C38.8902 27.9226 38.8902 29.12 37.6126 29.8061L37.2787 29.9874H37.6575C37.6897 29.9874 39.3141 30.0002 41.3494 30.0002C43.5454 30.0002 46.2226 29.9874 47.8857 29.9291C49.3305 29.8772 50.82 29.6119 52.2134 29.1587C54.1589 28.5244 55.6421 26.9128 56.1815 24.8415C56.7336 22.738 56.2137 20.5502 54.8011 18.9969M41.2469 15.3271C41.2596 14.6344 41.2596 13.9224 41.2534 13.2429V11.586C41.2534 10.9452 41.2598 10.2204 41.2534 9.56019V9.02954C41.2534 8.65405 41.324 8.47297 41.7221 8.47297H47.3853C49.3243 8.47297 50.9682 9.94223 51.1351 11.8192V11.8579C51.2698 13.5344 50.7112 14.8417 49.6135 15.4372C48.9521 15.7996 47.6744 15.9291 46.9809 15.9291H41.7159C41.3242 15.9291 41.2536 15.7543 41.2471 15.4113V15.3271H41.2469ZM53.7866 24.0002C53.5683 26.1362 53.0611 27.5537 51.0772 28.531C51.045 28.5503 50.9679 28.5893 50.9617 28.5956C50.0885 28.9452 47.6358 29.2364 46.9809 29.2364H41.6453C41.3307 29.2171 41.2409 29.081 41.2471 28.6409V28.1555C41.2598 26.9516 41.2598 25.7283 41.2536 24.5437V21.7865C41.2536 20.4596 41.2601 19.0875 41.2471 17.7605V17.2103C41.2471 16.9837 41.2793 16.8544 41.3564 16.7767C41.427 16.7055 41.5425 16.6731 41.7159 16.6731H46.9103C48.0402 16.6731 49.6135 17.0355 50.9233 17.6051C52.7725 18.4011 53.8448 20.4141 53.8448 22.9774C53.8448 23.3076 53.8256 23.6506 53.7869 24" fill="#131411"/>
<path d="M18.8897 29.7929L18.0036 29.9871H24.116L23.628 29.7995C22.7291 29.4499 22.3117 28.6604 21.9906 27.9419C19.7048 22.7769 14.3563 10.6604 14.0225 9.91599C13.6887 9.18463 13.3611 8.46609 13.0722 7.80591L13.0465 7.74756H9.57284L9.56012 7.94172C10.4011 8.07124 11.0625 8.83504 11.0625 9.66976V9.77338C11.0625 9.83801 11.069 9.91572 11.0625 9.98062C11.0368 10.2331 10.9919 10.3624 10.8891 10.5824C10.3497 11.8123 9.80412 13.0484 9.26473 14.2782C8.21163 16.6795 7.12012 19.1585 6.0351 21.592L5.65638 22.4398C5.23899 23.3784 4.81536 24.3168 4.39148 25.2488C4.25676 25.5531 4.12178 25.8766 3.98706 26.1937L3.86506 26.498C3.75578 26.7633 3.64027 27.0352 3.50555 27.294L3.49283 27.3199C3.01781 28.3231 2.31774 29.3975 0.751208 29.7924L0 29.9865H5.81083L5.82355 29.7924C4.96955 29.6953 4.41095 29.4234 4.16046 28.9899C3.94865 28.6209 3.96136 28.1355 4.20536 27.5465L5.77838 23.9931C5.82329 23.8829 5.8682 23.7796 5.91959 23.6694C5.95178 23.6048 5.97748 23.5399 6.00318 23.4818C6.05457 23.3913 6.09299 23.307 6.1379 23.2165L6.15061 23.184C6.22122 23.0223 6.52933 22.8603 6.73492 22.841C6.8442 22.8282 6.96594 22.8216 7.08171 22.8151C7.12661 22.8151 7.17801 22.8151 7.22292 22.8085H15.3323C15.5698 22.8085 15.8011 22.802 16.0386 22.8085H16.1733C16.2182 22.8151 16.2631 22.8151 16.3018 22.8151H16.3145C16.4365 22.8216 16.552 22.8279 16.6613 22.841C16.8669 22.8603 17.175 23.0223 17.2456 23.184L17.3035 23.307C17.4063 23.5336 17.5091 23.7602 17.5989 23.9931C18.1383 25.1905 18.7034 26.5108 19.384 28.1483C19.5125 28.472 19.6537 28.8862 19.5639 29.1581C19.4803 29.4106 19.1851 29.7278 18.8897 29.7924M16.6361 21.9929C16.6039 22.0382 16.5463 22.0706 16.4884 22.0706H6.90234C6.84446 22.0706 6.79306 22.0447 6.76113 21.9929C6.72895 21.9411 6.72272 21.8828 6.74841 21.8247L11.5575 10.9896C11.5897 10.925 11.6474 10.886 11.718 10.886C11.7886 10.886 11.8465 10.9184 11.8722 10.9831L13.2142 14.0315C14.2735 16.4456 15.6412 19.5461 16.6494 21.8309C16.6686 21.8828 16.6686 21.9411 16.6366 21.9927" fill="#131411"/>
<path d="M188.089 27.1519C188.109 22.1938 188.089 10.4853 188.07 10.1486C188.044 9.47555 187.955 8.72457 187.287 8.21327C187.152 8.10311 186.985 8.01258 186.799 7.92858L186.375 7.74097L191.948 7.74751L191.582 7.92884C191.428 8.00656 191.28 8.10364 191.159 8.20726C190.394 8.82217 190.388 9.76077 190.388 10.5827C190.369 15.5923 190.375 25.4435 190.375 25.8577V26.2332C190.382 26.6992 190.395 27.3269 190.401 27.586C190.433 28.2849 190.523 29.01 191.185 29.5213C191.326 29.6249 191.493 29.722 191.679 29.7997L192.103 29.9873H186.53L186.889 29.806C187.056 29.7217 187.197 29.6246 187.319 29.5275C188.083 28.9061 188.083 27.974 188.09 27.1521" fill="#131411"/>
<path d="M204 19.7801C204 20.4144 203.493 20.9322 202.864 20.9322C202.234 20.9322 201.727 20.4144 201.727 19.7801C201.727 19.1458 202.234 18.6345 202.864 18.6345C203.493 18.6345 204 19.1524 204 19.7801Z" fill="#131411"/>
<path d="M204 28.8414C204 29.4757 203.493 29.9869 202.864 29.9869C202.234 29.9869 201.727 29.4757 201.727 28.8414C201.727 28.2071 202.234 27.6958 202.864 27.6958C203.493 27.6958 204 28.2071 204 28.8414Z" fill="#131411"/>
<path d="M15.6386 0L13.0319 5.99346H12.1971L14.7976 0H15.6386Z" fill="#131411"/>
<path d="M16.3023 22.8154H7.08197C7.12688 22.8154 7.17827 22.8154 7.22318 22.8088H15.3325C15.5701 22.8088 15.8013 22.8023 16.0388 22.8088H16.1736C16.2185 22.8154 16.2634 22.8154 16.3021 22.8154" fill="#131411"/>
<path d="M109.153 29.9561C108.585 29.9297 108.022 29.8596 107.463 29.7497C106.093 29.4786 104.822 28.9581 103.651 28.1912C102.477 27.4216 101.49 26.4618 100.73 25.2715C99.7884 23.797 99.2997 22.1653 99.1039 20.4359C99.0622 20.0701 99.0461 19.7014 99.016 19.3343C99.0095 19.2566 98.9947 19.1797 98.9838 19.1025V18.3122C98.996 18.212 99.0147 18.1115 99.0191 18.0105C99.0466 17.4346 99.1154 16.8629 99.2252 16.2966C99.5149 14.8059 100.091 13.4371 100.941 12.1845C101.678 11.1005 102.584 10.1904 103.686 9.48285C105.197 8.51259 106.872 7.97016 108.643 7.79929C108.903 7.77469 109.847 7.73728 110.062 7.7378C110.366 7.7378 110.931 7.77339 111.234 7.79353C111.896 7.86078 112.244 7.91128 112.87 8.0518C114.494 8.41682 115.96 9.11259 117.249 10.1773C118.509 11.2161 119.472 12.4808 120.114 13.9908C120.662 15.2808 120.909 16.6381 121.002 18.0291C121.022 18.3282 121.022 18.6286 121.027 18.9274C121.04 19.6535 120.991 20.3747 120.871 21.0919C120.652 22.411 120.215 23.65 119.55 24.8078C118.986 25.7904 118.295 26.6688 117.443 27.4161C116.403 28.3288 115.214 28.9688 113.899 29.3804C113.262 29.5798 112.65 29.7609 111.988 29.846C111.596 29.8957 110.975 29.9988 109.153 29.9561M118.493 19.052C118.481 18.4889 118.455 17.9271 118.4 17.3658C118.332 16.6669 118.224 15.9756 118.063 15.2921C117.796 14.1641 117.382 13.0954 116.788 12.0998C116.274 11.2402 115.634 10.4965 114.822 9.90936C113.628 9.04665 112.289 8.59161 110.83 8.49375C110.249 8.45503 109.667 8.45816 109.086 8.50474C108.415 8.55838 107.763 8.69759 107.129 8.92341C105.938 9.34678 104.91 10.0185 104.07 10.9733C103.531 11.5856 103.105 12.2748 102.75 13.0088C102.208 14.1253 101.888 15.3086 101.711 16.5345C101.622 17.1572 101.57 17.7837 101.546 18.4127C101.505 19.4924 101.571 20.5649 101.765 21.6283C101.989 22.8542 102.384 24.0205 102.961 25.1234C103.329 25.827 103.77 26.4788 104.33 27.0406C105.725 28.4387 107.43 29.1196 109.377 29.22C109.667 29.235 109.959 29.2253 110.25 29.2279C110.843 29.2337 111.43 29.1729 112.009 29.0447C113.086 28.8066 114.071 28.3631 114.953 27.6927C115.661 27.1547 116.232 26.4922 116.711 25.7446C117.682 24.2293 118.209 22.5596 118.413 20.7777C118.478 20.2049 118.505 19.6295 118.493 19.052" fill="#131411"/>
<path d="M151.009 9.85752C149.905 8.74413 148.447 8.0324 146.804 7.81233C146.483 7.77361 146.194 7.7477 145.918 7.74116C145.847 7.73462 145.61 7.73462 145.115 7.73462H139.811C138.791 7.73462 137.866 7.73462 137.038 7.74116H134.328L134.726 7.92878C135.42 8.25246 135.811 8.91918 135.895 9.90278C135.94 10.4659 135.94 11.0418 135.946 11.5986V15.5987C135.946 19.3981 135.946 23.3268 135.94 26.9451V27.0228C135.933 28.1103 135.927 29.1394 134.72 29.8059L134.386 29.9872H139.966L139.561 29.7996C138.482 29.3011 138.322 28.4858 138.303 27.7544C138.277 26.3111 138.258 24.6542 138.245 23.0489C138.232 21.9873 138.226 20.9519 138.213 20.0002V19.9808C138.238 19.7221 138.322 19.5795 138.675 19.5795H139.17L139.253 19.5729C141.07 19.5923 142.945 19.6116 144.775 19.5083C144.859 19.5083 144.955 19.5017 145.032 19.4955C145.051 19.4955 145.07 19.4955 145.09 19.4889H145.141C146.509 19.3984 147.806 19.133 148.884 18.7251C150.644 18.0584 151.832 16.6734 152.229 14.8093C152.319 14.3885 152.364 13.9615 152.364 13.5342C152.364 12.1102 151.876 10.7315 151.009 9.85778M138.206 9.56654V9.00998C138.213 8.64757 138.284 8.47932 138.675 8.47932H145.61C146.393 8.47932 147.119 8.66065 147.697 9.00998C149.295 9.95485 149.86 11.6054 149.86 13.2623C149.86 14.0002 149.751 14.7316 149.565 15.4111C149.321 16.2785 148.923 17.0034 148.384 17.5665C147.671 18.3172 145.905 18.7638 143.658 18.7638H138.682C138.29 18.7638 138.213 18.5825 138.207 18.2266V17.4241C138.207 17.2559 138.213 17.0876 138.207 16.9194C138.22 16.0909 138.213 15.2494 138.213 14.4144V11.573C138.213 10.9063 138.213 10.2333 138.207 9.56654" fill="#131411"/>
<path d="M181.354 22.9126C181.155 21.9805 180.757 21.1649 180.192 20.5047C179.627 19.838 178.889 19.3267 178.009 18.9967C176.93 18.589 175.633 18.3235 174.259 18.2329C174.246 18.2329 174.233 18.2329 174.221 18.2264H174.163C174.079 18.2198 173.989 18.2136 173.906 18.2136C172.076 18.1099 170.201 18.1293 168.391 18.1489L167.838 18.1424C167.447 18.1489 167.363 18.0066 167.338 17.7475V17.7216C167.351 16.7702 167.363 15.7345 167.37 14.673C167.389 13.0679 167.402 11.4108 167.428 9.96742C167.447 9.23606 167.608 8.42045 168.693 7.92223L169.091 7.73462H163.518L163.845 7.91595C165.052 8.58268 165.059 9.61181 165.065 10.699V10.7767C165.078 14.3948 165.078 18.3237 165.072 22.1231V26.1232C165.072 26.6798 165.065 27.2559 165.02 27.8191C164.943 28.8029 164.545 29.4696 163.852 29.7931L163.46 29.9807H166.08C166.914 29.9872 167.916 29.9872 168.937 29.9872H174.24C174.735 29.9872 174.979 29.9872 175.03 29.9807C175.319 29.9741 175.608 29.9482 175.929 29.9095C177.579 29.6894 179.03 28.9774 180.135 27.8643C181.258 26.7316 181.746 24.7445 181.355 22.9128M174.735 29.243H167.801C167.409 29.243 167.338 29.0682 167.332 28.7124V28.1558C167.338 27.4825 167.338 26.8161 167.338 26.1494V23.3079C167.345 22.473 167.345 21.6314 167.332 20.803C167.338 20.6348 167.338 20.4665 167.332 20.2982V19.4957C167.338 19.1399 167.415 18.9585 167.807 18.9585H172.783C175.03 18.9585 176.802 19.4052 177.515 20.1559C178.048 20.719 178.446 21.4438 178.69 22.3112C178.876 22.9908 178.992 23.7287 178.992 24.46C178.992 26.1169 178.421 27.7675 176.828 28.7124C176.244 29.062 175.518 29.243 174.735 29.243" fill="#131411"/>
<path d="M139.812 7.83154C138.791 7.83154 137.789 7.83154 136.955 7.83808V7.83154H139.812Z" fill="#131411"/>
<path d="M136.858 7.93614V7.7412L136.955 7.73413H139.812V7.92829C138.791 7.92829 137.79 7.92829 136.955 7.93535L136.858 7.93588V7.93614Z" fill="#131411"/>
<path d="M87.0654 8.30426V8.34953C87.0654 8.38825 87.0719 8.42724 87.0654 8.47251C87.0527 10.0454 87.0462 11.1651 87.0462 11.1651V11.4304L86.8793 11.2297C86.4749 10.7508 86.173 10.3882 85.6785 10.0388C83.6239 8.6214 82.4681 8.49187 79.4375 8.46597C78.9882 8.46597 78.943 9.13269 78.943 9.41739V9.91586C78.9495 12.4661 78.9495 15.0163 78.9495 17.5727C78.9495 20.7572 78.9495 23.9482 78.9623 27.139C78.9687 28.1553 78.975 29.2038 80.1887 29.7991L80.5612 29.9867H75.1164L75.4889 29.7991C76.7024 29.2035 76.7089 28.155 76.7154 27.139C76.7281 23.948 76.7281 20.7572 76.7281 17.5727C76.7281 15.016 76.7281 12.4661 76.7346 9.91586V9.41739C76.7346 9.13269 76.6897 8.46597 76.2401 8.46597C73.2096 8.49187 72.0537 8.6214 69.9991 10.0388C69.5047 10.3884 69.203 10.7508 68.8178 11.2103L68.6444 11.411L68.6317 11.1651C68.6317 11.1651 68.6252 10.0454 68.6125 8.45943C68.606 8.42698 68.606 8.38825 68.6125 8.34927V8.31054C68.6509 7.75398 69.107 7.76026 69.4278 7.76026H69.4792C70.8596 7.7668 72.2465 7.76026 73.627 7.76026H82.0509C83.4313 7.76026 84.8182 7.7668 86.1987 7.76026H86.295C86.6225 7.76026 87.0335 7.77962 87.0654 8.304" fill="#131411"/>
</svg>
