<svg width="110" height="35" viewBox="0 0 110 35" fill="none" xmlns="http://www.w3.org/2000/svg">
<path d="M50.812 8.84016V17.5716H49.107V11.9086L46.6553 15.9625H46.4562L44.0045 11.9211V17.5716H42.2871V8.84016H44.0543L46.5558 12.9689L49.0448 8.84016H50.812Z" fill="#131411"/>
<path d="M58.0355 17.5716L57.5128 15.9999H54.0407L53.518 17.5716H51.6636L54.7127 8.84016H56.8408L59.9023 17.5716H58.0355ZM54.5882 14.3908H56.9777L55.783 10.8234L54.5882 14.3908Z" fill="#131411"/>
<path d="M65.5271 17.5716L63.7723 14.5405H62.4656V17.5716H60.7482V8.84016H64.2328C65.0376 8.84016 65.7221 9.12289 66.2863 9.68835C66.8504 10.2538 67.1325 10.9357 67.1325 11.734C67.1325 12.2745 66.979 12.7776 66.6721 13.2433C66.3651 13.7006 65.9585 14.0457 65.4524 14.2786L67.3814 17.5716H65.5271ZM62.4656 10.4492V13.0312H64.2328C64.5564 13.0312 64.8343 12.9065 65.0666 12.657C65.299 12.3992 65.4151 12.0916 65.4151 11.734C65.4151 11.3764 65.299 11.0729 65.0666 10.8234C64.8343 10.574 64.5564 10.4492 64.2328 10.4492H62.4656Z" fill="#131411"/>
<path d="M75.2002 17.5716H73.2214L70.1101 13.4803V17.5716H68.3927V8.84016H70.1101V12.6945L73.097 8.84016H75.0757L71.8524 13.0811L75.2002 17.5716Z" fill="#131411"/>
<path d="M77.7668 15.9251H81.4381V17.5716H76.0494V8.84016H81.3759V10.4867H77.7668V12.3452H81.0648V13.9667H77.7668V15.9251Z" fill="#131411"/>
<path d="M88.4108 8.84016V10.4867H86.0586V17.5716H84.3412V10.4867H82.0015V8.84016H88.4108Z" fill="#131411"/>
<path d="M89.3695 8.84016H91.087V17.5716H89.3695V8.84016Z" fill="#131411"/>
<path d="M97.7398 8.84016H99.4573V17.5716H98.1505L94.417 12.2329V17.5716H92.6996V8.84016H94.0063L97.7398 14.1663V8.84016Z" fill="#131411"/>
<path d="M109.623 12.8816V13.5551C109.623 14.8025 109.225 15.8128 108.428 16.5862C107.632 17.3595 106.603 17.7462 105.342 17.7462C103.998 17.7462 102.882 17.3096 101.994 16.4365C101.115 15.555 100.675 14.4823 100.675 13.2183C100.675 11.946 101.111 10.8692 101.982 9.98771C102.861 9.10626 103.948 8.66553 105.242 8.66553C106.055 8.66553 106.798 8.85263 107.47 9.22683C108.142 9.59272 108.665 10.0833 109.038 10.6987L107.57 11.5469C107.362 11.1893 107.047 10.8983 106.624 10.6738C106.209 10.4492 105.744 10.337 105.23 10.337C104.4 10.337 103.716 10.6114 103.177 11.1602C102.646 11.7007 102.38 12.3868 102.38 13.2183C102.38 14.0416 102.65 14.7235 103.189 15.264C103.737 15.7962 104.458 16.0623 105.354 16.0623C106.018 16.0623 106.566 15.9168 106.997 15.6257C107.437 15.3264 107.736 14.9189 107.893 14.4033H105.255V12.8816H109.623Z" fill="#131411"/>
<path d="M47.4892 21.8262H44.0045V23.8967H47.3896V25.5432H44.0045V28.9111H42.2871V20.1797H47.4892V21.8262Z" fill="#131411"/>
<path d="M48.7406 20.1797H50.458V28.9111H48.7406V20.1797Z" fill="#131411"/>
<path d="M58.7039 28.9111H56.75L55.0575 26.0671L53.3649 28.9111H51.4235L54.0867 24.4331L51.5604 20.1797H53.5018L55.0575 22.7991L56.6131 20.1797H58.5545L56.0282 24.4206L58.7039 28.9111Z" fill="#131411"/>
<path d="M4.07295 30.1722V22.6881L10.4086 26.4301L4.07295 30.1722Z" fill="#131411"/>
<path d="M23.7589 26.0899V18.6059L30.0946 22.3479L23.7589 26.0899Z" fill="#131411"/>
<path d="M4.07295 22.0077V14.5236L10.4086 18.2657L4.07295 22.0077Z" fill="#131411"/>
<path d="M17.1969 22.0077V14.5236L23.5326 18.2657L17.1969 22.0077Z" fill="#131411"/>
<path d="M23.7589 17.9255V10.4414L30.0946 14.1835L23.7589 17.9255Z" fill="#131411"/>
<path d="M4.07295 13.8433V6.3592L10.4086 10.1012L4.07295 13.8433Z" fill="#131411"/>
<path d="M10.6349 17.9255V10.4414L16.9706 14.1835L10.6349 17.9255Z" fill="#131411"/>
<path d="M10.4086 26.0899V18.6059L4.07295 22.3479L10.4086 26.0899Z" fill="#131411"/>
<path d="M30.0946 30.1722V22.6881L23.7589 26.4301L30.0946 30.1722Z" fill="#131411"/>
<path d="M16.9706 22.0077V14.5236L10.6349 18.2657L16.9706 22.0077Z" fill="#131411"/>
<path d="M23.5326 17.9255V10.4414L17.1969 14.1835L23.5326 17.9255Z" fill="#131411"/>
<path d="M30.0946 13.8433V6.3592L23.7589 10.1012L30.0946 13.8433Z" fill="#131411"/>
<path d="M30.0946 22.0077V14.5236L23.7589 18.2657L30.0946 22.0077Z" fill="#131411"/>
<path d="M10.4086 17.9255V10.4414L4.07295 14.1835L10.4086 17.9255Z" fill="#131411"/>
<path fill-rule="evenodd" clip-rule="evenodd" d="M33.9412 0.689453H0V34.708H33.9412V0.689453ZM32.8099 1.8234H1.13137V33.574H32.8099V1.8234Z" fill="#131411"/>
</svg>
