<svg width="494" height="473" viewBox="0 0 494 473" fill="none" xmlns="http://www.w3.org/2000/svg">
<g opacity="0.05">
<path d="M299.288 469.934L285.209 473H382.398L374.678 470.047C368.583 467.184 363.134 463.109 358.664 458.072C354.194 453.035 350.796 447.14 348.677 440.747C312.345 359.321 227.304 168.19 221.968 156.834C216.632 145.477 211.409 134.121 206.867 123.559V122.651H151.688V125.717C158.224 126.769 164.191 130.065 168.563 135.039C172.934 140.012 175.438 146.353 175.644 152.973V154.676C175.701 155.735 175.701 156.797 175.644 157.856C175.344 161.193 174.379 164.437 172.806 167.395C164.29 186.815 155.548 206.235 147.032 225.654C130.229 263.585 112.971 302.652 95.713 341.037L89.6955 354.438C82.9967 369.201 76.298 384.078 69.5993 398.728C67.442 403.498 65.2847 408.609 63.1275 413.605L61.1972 418.489C59.4941 422.577 57.5639 426.893 55.5202 430.981C51.8419 440.454 45.9739 448.922 38.3962 455.693C30.8185 462.463 21.7463 467.343 11.9214 469.934L0 473H92.307V469.934C87.2224 470.027 82.1856 468.936 77.5946 466.749C73.0035 464.561 68.9836 461.336 65.8523 457.328C64.2066 453.742 63.4216 449.821 63.5596 445.877C63.6975 441.934 64.7548 438.077 66.6471 434.615L91.6258 378.627C92.2659 376.874 93.0243 375.166 93.8964 373.516L95.1455 370.564L97.3027 366.362V365.794C98.3931 364.301 99.7855 363.054 101.39 362.134C102.994 361.214 104.773 360.643 106.613 360.457H112.063H258.868H264.432C266.251 360.658 268.009 361.237 269.592 362.156C271.176 363.075 272.55 364.314 273.628 365.794L274.536 367.725C276.24 371.359 277.829 374.88 279.305 379.081C287.821 397.933 296.79 418.716 307.69 444.609C310.2 449.507 311.189 455.043 310.528 460.508C309.598 462.878 308.145 465.008 306.277 466.738C304.41 468.468 302.176 469.755 299.742 470.501M263.977 347.51C263.69 347.875 263.329 348.174 262.919 348.389C262.508 348.605 262.056 348.731 261.593 348.759H108.77C108.317 348.756 107.873 348.64 107.477 348.422C107.08 348.204 106.744 347.891 106.499 347.51C106.297 347.084 106.192 346.619 106.192 346.148C106.192 345.676 106.297 345.21 106.499 344.784L183.024 174.436C183.226 173.937 183.571 173.509 184.015 173.206C184.46 172.903 184.984 172.738 185.522 172.733C186.05 172.714 186.572 172.856 187.018 173.14C187.464 173.424 187.813 173.836 188.02 174.323L209.365 222.361C226.169 260.405 247.968 309.352 263.977 345.352C264.149 345.766 264.238 346.21 264.238 346.658C264.238 347.107 264.149 347.55 263.977 347.964" fill="#131411"/>
<path d="M494.007 311.964C494.007 315.536 492.948 319.027 490.964 321.996C488.981 324.966 486.161 327.28 482.863 328.647C479.564 330.013 475.934 330.371 472.432 329.674C468.93 328.977 465.714 327.258 463.189 324.732C460.664 322.207 458.945 318.989 458.248 315.487C457.552 311.984 457.909 308.354 459.276 305.054C460.642 301.755 462.956 298.934 465.925 296.95C468.894 294.966 472.384 293.907 475.954 293.907C480.742 293.907 485.334 295.81 488.719 299.196C492.105 302.582 494.007 307.175 494.007 311.964Z" fill="#131411"/>
<path d="M494.007 454.943C494.007 458.514 492.948 462.006 490.964 464.975C488.981 467.944 486.161 470.259 482.863 471.625C479.564 472.992 475.934 473.35 472.432 472.653C468.93 471.956 465.714 470.237 463.189 467.711C460.664 465.186 458.945 461.968 458.248 458.466C457.552 454.963 457.909 451.333 459.276 448.033C460.642 444.734 462.956 441.914 465.925 439.929C468.894 437.945 472.384 436.886 475.954 436.886C480.742 436.886 485.334 438.789 488.719 442.175C492.105 445.561 494.007 450.154 494.007 454.943Z" fill="#131411"/>
<path d="M248.877 0L207.435 94.4864H194.151L235.479 0H248.877Z" fill="#131411"/>
</g>
</svg>
