<svg width="82" height="12" viewBox="0 0 82 12" fill="none" xmlns="http://www.w3.org/2000/svg">
<path d="M22.0277 7.59862C21.5605 7.08346 20.9669 6.76496 20.0997 6.56819C20.0533 6.55783 19.9732 6.53972 19.9035 6.52161C19.9732 6.50089 20.0584 6.47504 20.141 6.44657C20.381 6.36367 20.7785 6.22646 21.0572 5.98573C21.4185 5.71642 21.6147 5.25045 21.5811 4.74303C21.545 4.1994 21.2637 3.7282 20.8274 3.48223C20.5229 3.31132 20.0687 3.10429 19.6377 3.09905C19.457 3.09644 19.248 3.09393 19.0208 3.09131H16.8735C16.538 3.09131 16.2257 3.09393 15.9624 3.09644C15.4824 3.09644 15.165 3.09905 15.165 3.09905L14.9921 3.10167L15.1495 3.1742C15.4592 3.31655 15.6167 3.60396 15.6167 4.02859C15.6296 6.32244 15.6321 8.8208 15.6321 10.7443C15.6321 11.169 15.6321 11.6479 15.1186 11.9224L14.9844 11.9949H15.1366C15.1495 11.9949 15.8025 12 16.6206 12C17.5033 12 18.5795 11.9949 19.248 11.9715C19.8287 11.9508 20.4274 11.8447 20.9875 11.6634C21.7695 11.4097 22.3657 10.7651 22.5825 9.93653C22.8045 9.09513 22.5955 8.22002 22.0277 7.59873M16.5794 6.13079C16.5845 5.85374 16.5845 5.56895 16.582 5.29713V4.63439C16.582 4.37807 16.5846 4.08814 16.582 3.82407V3.61181C16.582 3.46161 16.6104 3.38919 16.7704 3.38919H19.0468C19.8262 3.38919 20.487 3.97688 20.5541 4.72765V4.74314C20.6082 5.41373 20.3837 5.93664 19.9424 6.17486C19.6766 6.31982 19.163 6.37163 18.8842 6.37163H16.7679C16.6105 6.37163 16.5821 6.30171 16.5795 6.1645V6.13079H16.5794ZM21.6199 9.60003C21.5322 10.4544 21.3283 11.0214 20.5308 11.4123C20.5179 11.4201 20.4869 11.4357 20.4844 11.4382C20.1334 11.578 19.1475 11.6945 18.8842 11.6945H16.7396C16.6131 11.6867 16.577 11.6323 16.5795 11.4563V11.2621C16.5846 10.7806 16.5846 10.2912 16.5821 9.81742V8.71457C16.5821 8.18381 16.5847 7.63494 16.5795 7.10418V6.88407C16.5795 6.79343 16.5924 6.74173 16.6234 6.71064C16.6518 6.68217 16.6982 6.66919 16.7679 6.66919H18.8559C19.31 6.66919 19.9424 6.81415 20.4689 7.04201C21.2122 7.3604 21.6433 8.1656 21.6433 9.1909C21.6433 9.32299 21.6356 9.4602 21.62 9.59993" fill="#131411"/>
<path d="M7.59294 11.9169L7.23672 11.9946H9.69369L9.49754 11.9196C9.13621 11.7797 8.96843 11.464 8.83937 11.1765C7.92056 9.11055 5.77066 4.26401 5.63648 3.96624C5.5023 3.6737 5.37063 3.38629 5.2545 3.12222L5.24417 3.09888H3.84791L3.84279 3.17654C4.18085 3.22835 4.44671 3.53387 4.44671 3.86775V3.9092C4.44671 3.93505 4.44932 3.96614 4.44671 3.99209C4.43638 4.09309 4.41833 4.1448 4.37701 4.23282C4.16019 4.72475 3.94087 5.21919 3.72406 5.71112C3.30076 6.67163 2.86201 7.66323 2.42588 8.63662L2.27364 8.97574C2.10587 9.35117 1.93559 9.7265 1.7652 10.0993C1.71105 10.221 1.65679 10.3504 1.60264 10.4773L1.5536 10.599C1.50968 10.7051 1.46325 10.8139 1.40909 10.9174L1.40398 10.9277C1.21304 11.329 0.93164 11.7588 0.301956 11.9167L0 11.9944H2.33573L2.34084 11.9167C1.99756 11.8779 1.77303 11.7692 1.67234 11.5957C1.5872 11.4481 1.59231 11.254 1.69039 11.0184L2.32268 9.59703C2.34073 9.55297 2.35879 9.51163 2.37944 9.46756C2.39238 9.44171 2.40271 9.41575 2.41304 9.39252C2.4337 9.3563 2.44914 9.3226 2.46719 9.28639L2.47231 9.27341C2.50069 9.20872 2.62454 9.14394 2.70717 9.13619C2.7511 9.13106 2.80003 9.12844 2.84657 9.12583C2.86462 9.12583 2.88528 9.12583 2.90333 9.12321H6.16297C6.25844 9.12321 6.35141 9.12059 6.44688 9.12321H6.50103C6.51908 9.12583 6.53713 9.12583 6.55268 9.12583H6.55779C6.60683 9.12844 6.65326 9.13096 6.69719 9.13619C6.77983 9.14394 6.90368 9.20872 6.93206 9.27341L6.95532 9.3226C6.99664 9.41324 7.03796 9.50388 7.07406 9.59703C7.29088 10.076 7.51802 10.6041 7.7916 11.2591C7.84325 11.3886 7.90001 11.5543 7.8639 11.663C7.83031 11.764 7.71167 11.8909 7.59294 11.9167M6.68707 8.79697C6.67413 8.81508 6.65097 8.82806 6.6277 8.82806H2.77447C2.7512 8.82806 2.73054 8.81769 2.71771 8.79697C2.70477 8.77625 2.70227 8.75291 2.7126 8.72967L4.64568 4.39568C4.65862 4.36983 4.68178 4.35423 4.71016 4.35423C4.73854 4.35423 4.76181 4.36721 4.77214 4.39307L5.31157 5.61242C5.73738 6.57806 6.28714 7.81824 6.69239 8.73218C6.70011 8.75291 6.70011 8.77625 6.68728 8.79687" fill="#131411"/>
<path d="M75.6052 10.8607C75.6129 8.87753 75.6052 4.19417 75.5975 4.05946C75.5871 3.79026 75.551 3.48987 75.2826 3.28536C75.2283 3.24129 75.1612 3.20508 75.0864 3.17148L74.916 3.09644L77.1563 3.09905L77.0092 3.17159C76.9472 3.20267 76.8878 3.2415 76.8389 3.28295C76.5317 3.52891 76.5292 3.90435 76.5292 4.2331C76.5215 6.23692 76.5241 10.1774 76.5241 10.3431V10.4932C76.5267 10.6797 76.5318 10.9308 76.5344 11.0344C76.5473 11.3139 76.5835 11.604 76.8493 11.8085C76.9061 11.8499 76.9732 11.8888 77.0481 11.9198L77.2185 11.9949H74.9782L75.1227 11.9224C75.1898 11.8886 75.2466 11.8498 75.2956 11.811C75.6028 11.5624 75.6028 11.1896 75.6053 10.8608" fill="#131411"/>
<path d="M81.9998 7.91196C81.9998 8.16567 81.7961 8.3728 81.5434 8.3728C81.2906 8.3728 81.0869 8.16567 81.0869 7.91196C81.0869 7.65825 81.2906 7.45374 81.5434 7.45374C81.7961 7.45374 81.9998 7.66087 81.9998 7.91196Z" fill="#131411"/>
<path d="M81.9998 11.5365C81.9998 11.7902 81.7961 11.9947 81.5434 11.9947C81.2906 11.9947 81.0869 11.7902 81.0869 11.5365C81.0869 11.2828 81.2906 11.0782 81.5434 11.0782C81.7961 11.0782 81.9998 11.2828 81.9998 11.5365Z" fill="#131411"/>
<path d="M6.28567 0L5.2379 2.39736H4.90234L5.94761 0H6.28567Z" fill="#131411"/>
<path d="M6.5529 9.12609H2.84668C2.86473 9.12609 2.88539 9.12609 2.90344 9.12348H6.16309C6.25856 9.12348 6.35152 9.12086 6.44699 9.12348H6.50114C6.51919 9.12609 6.53724 9.12609 6.55279 9.12609" fill="#131411"/>
<path d="M43.8748 11.9822C43.6464 11.9717 43.4201 11.9436 43.1955 11.8996C42.6447 11.7912 42.134 11.583 41.6632 11.2763C41.1912 10.9684 40.7945 10.5845 40.4889 10.1084C40.1106 9.51861 39.9141 8.86591 39.8354 8.17418C39.8186 8.02786 39.8122 7.88038 39.8 7.73354C39.7974 7.70245 39.7915 7.67168 39.7871 7.6408V7.32471C39.792 7.28463 39.7995 7.24444 39.8013 7.20403C39.8124 6.97367 39.84 6.74497 39.8841 6.51848C40.0006 5.9222 40.2323 5.37469 40.574 4.87366C40.87 4.44003 41.2342 4.076 41.6771 3.79299C42.2847 3.40489 42.958 3.18792 43.6698 3.11957C43.7743 3.10973 44.1537 3.09476 44.2402 3.09497C44.3623 3.09497 44.5894 3.10921 44.7112 3.11727C44.9772 3.14417 45.1174 3.16437 45.369 3.22057C46.0218 3.36658 46.611 3.64489 47.1292 4.07077C47.6354 4.48629 48.0225 4.99214 48.2806 5.59616C48.501 6.11216 48.6001 6.65506 48.6377 7.21147C48.6458 7.3311 48.6458 7.45125 48.6478 7.57078C48.6527 7.86123 48.633 8.14969 48.5851 8.43657C48.4968 8.96419 48.3211 9.45978 48.0539 9.92293C47.8272 10.3159 47.5493 10.6673 47.2071 10.9662C46.789 11.3313 46.311 11.5873 45.7826 11.752C45.5266 11.8317 45.2803 11.9041 45.0143 11.9382C44.8568 11.958 44.6072 11.9993 43.8746 11.9822M47.629 7.6206C47.6241 7.39536 47.6138 7.17065 47.5919 6.94614C47.5645 6.66658 47.5211 6.39005 47.4561 6.11666C47.3487 5.66545 47.1825 5.238 46.9436 4.83975C46.7371 4.49592 46.48 4.19846 46.1535 3.96359C45.6735 3.61851 45.1354 3.4365 44.5487 3.39735C44.3154 3.38186 44.0813 3.38312 43.848 3.40175C43.5783 3.4232 43.3158 3.47889 43.061 3.56921C42.5823 3.73856 42.1691 4.00724 41.8317 4.38916C41.6149 4.63408 41.4438 4.90977 41.3009 5.20335C41.0833 5.64996 40.9544 6.12326 40.8835 6.61362C40.8474 6.86272 40.8267 7.11329 40.8171 7.36491C40.8007 7.79675 40.8269 8.22578 40.9051 8.65114C40.9951 9.1415 41.1538 9.60799 41.3857 10.0492C41.5335 10.3306 41.7111 10.5913 41.9362 10.816C42.497 11.3753 43.182 11.6476 43.9647 11.6878C44.0814 11.6938 44.1985 11.6899 44.3155 11.6909C44.554 11.6932 44.7898 11.669 45.0229 11.6177C45.4557 11.5224 45.8517 11.345 46.2062 11.0769C46.4907 10.8617 46.7203 10.5967 46.9129 10.2976C47.3031 9.69151 47.5151 9.02364 47.5969 8.31087C47.6232 8.08176 47.634 7.8516 47.6289 7.6206" fill="#131411"/>
<path d="M60.7003 3.9429C60.2564 3.49755 59.6705 3.21286 59.0098 3.12484C58.8808 3.10935 58.7646 3.09898 58.6536 3.09637C58.6253 3.09375 58.5298 3.09375 58.331 3.09375H56.1992C55.7888 3.09375 55.4171 3.09375 55.0842 3.09637H53.9951L54.1552 3.17141C54.4339 3.30088 54.5913 3.56757 54.6249 3.96101C54.643 4.18625 54.643 4.41662 54.6456 4.63935V6.23937C54.6456 7.75911 54.6456 9.33056 54.643 10.7779V10.809C54.6403 11.2439 54.6378 11.6556 54.1526 11.9222L54.0184 11.9947H56.2611L56.0986 11.9197C55.665 11.7203 55.6005 11.3941 55.5928 11.1016C55.5824 10.5243 55.5747 9.86152 55.5695 9.2194C55.5644 8.79477 55.5618 8.38061 55.5565 7.99994V7.9922C55.5669 7.88868 55.6005 7.83164 55.7424 7.83164H55.9411L55.9747 7.82903C56.7051 7.83677 57.4587 7.84452 58.1943 7.80317C58.2279 7.80317 58.2666 7.80056 58.2975 7.79804C58.3052 7.79804 58.313 7.79804 58.3208 7.79543H58.3415C58.8912 7.75921 59.4125 7.65308 59.8461 7.48991C60.5533 7.22322 61.0308 6.66923 61.1907 5.92359C61.2268 5.75529 61.2449 5.58447 61.2449 5.41356C61.2449 4.84397 61.0487 4.29248 60.7003 3.94301M55.554 3.82651V3.60389C55.5567 3.45893 55.585 3.39163 55.7425 3.39163H58.5299C58.8448 3.39163 59.1364 3.46416 59.3687 3.60389C60.0113 3.98184 60.2384 4.64207 60.2384 5.30481C60.2384 5.59996 60.1945 5.8925 60.1197 6.16432C60.0216 6.51129 59.8616 6.80121 59.6448 7.02645C59.3583 7.32674 58.6486 7.5054 57.7454 7.5054H55.7452C55.5877 7.5054 55.5568 7.43287 55.5543 7.29052V6.96951C55.5543 6.90221 55.5569 6.83491 55.5543 6.76761C55.5594 6.43624 55.5569 6.09964 55.5569 5.76565V4.62909C55.5569 4.3624 55.5569 4.0932 55.5543 3.82651" fill="#131411"/>
<path d="M72.8978 9.16487C72.8177 8.79205 72.6578 8.46581 72.4306 8.20174C72.2035 7.93505 71.9068 7.73054 71.5532 7.59855C71.1195 7.43548 70.5982 7.32925 70.0459 7.29303C70.0408 7.29303 70.0356 7.29303 70.0304 7.29042H70.0072C69.9736 7.2878 69.9375 7.28529 69.904 7.28529C69.1684 7.24384 68.4148 7.25159 67.687 7.25944L67.4651 7.25682C67.3076 7.25944 67.2741 7.2025 67.2638 7.09888V7.08852C67.269 6.70795 67.2741 6.29369 67.2767 5.86906C67.2845 5.22704 67.2897 4.5642 67.3 3.98686C67.3077 3.69432 67.3723 3.36808 67.8084 3.1688L67.9685 3.09375H65.7282L65.8599 3.16628C66.3451 3.43297 66.3477 3.84462 66.3503 4.27951V4.31059C66.3555 5.7578 66.3555 7.32935 66.3529 8.84909V10.4491C66.3529 10.6717 66.3503 10.9022 66.3323 11.1275C66.3013 11.521 66.1413 11.7877 65.8625 11.917L65.7051 11.9921H66.7581C67.0936 11.9947 67.4962 11.9947 67.9065 11.9947H70.0384C70.2371 11.9947 70.3352 11.9947 70.3559 11.9921C70.472 11.9895 70.5881 11.9791 70.7172 11.9636C71.3805 11.8756 71.9637 11.5908 72.4077 11.1456C72.8594 10.6925 73.0555 9.89763 72.8981 9.16498M70.2372 11.697H67.4498C67.2924 11.697 67.264 11.6271 67.2614 11.4848V11.2622C67.264 10.9929 67.264 10.7263 67.264 10.4596V9.32302C67.2666 8.98903 67.2666 8.65243 67.2614 8.32106C67.264 8.25376 67.264 8.18646 67.2614 8.11916V7.79815C67.264 7.6558 67.295 7.58327 67.4523 7.58327H69.4525C70.3558 7.58327 71.0681 7.76193 71.3546 8.06222C71.5688 8.28746 71.7289 8.57738 71.8269 8.92435C71.9018 9.19617 71.9483 9.49132 71.9483 9.78386C71.9483 10.4466 71.7186 11.1068 71.0785 11.4848C70.8437 11.6246 70.552 11.697 70.2371 11.697" fill="#131411"/>
<path d="M56.1984 3.13257C55.7883 3.13257 55.386 3.13257 55.0508 3.13518V3.13257H56.1984Z" fill="#131411"/>
<path d="M55.0117 3.17443V3.09645L55.0504 3.09363H56.198V3.17129C55.7879 3.17129 55.3859 3.17129 55.0506 3.17412L55.0117 3.17432V3.17443Z" fill="#131411"/>
<path d="M34.9964 3.3216V3.33971C34.9964 3.3552 34.999 3.3708 34.9964 3.3889C34.9913 4.01805 34.9887 4.46591 34.9887 4.46591V4.57204L34.9216 4.49176C34.7591 4.30023 34.6377 4.15516 34.439 4.01543C33.6131 3.44846 33.1485 3.39665 31.9303 3.38629C31.7497 3.38629 31.7316 3.65298 31.7316 3.76685V3.96624C31.7342 4.98631 31.7342 6.00638 31.7342 7.02896C31.7342 8.30274 31.7342 9.57913 31.7393 10.8554C31.7419 11.2619 31.7444 11.6813 32.2323 11.9195L32.382 11.9945H30.1934L30.3431 11.9195C30.8309 11.6812 30.8335 11.2618 30.8361 10.8554C30.8413 9.57903 30.8413 8.30274 30.8413 7.02896C30.8413 6.00627 30.8413 4.98631 30.8439 3.96624V3.76685C30.8439 3.65298 30.8258 3.38629 30.6451 3.38629C29.4269 3.39665 28.9623 3.44846 28.1365 4.01543C27.9377 4.15526 27.8165 4.30023 27.6616 4.48402L27.5919 4.5643L27.5868 4.46591C27.5868 4.46591 27.5842 4.01805 27.5791 3.38367C27.5765 3.37069 27.5765 3.3552 27.5791 3.33961V3.32412C27.5945 3.10149 27.7779 3.10401 27.9068 3.10401H27.9275C28.4824 3.10662 29.0398 3.10401 29.5947 3.10401H32.9808C33.5357 3.10401 34.0932 3.10662 34.6481 3.10401H34.6868C34.8184 3.10401 34.9836 3.11175 34.9964 3.3215" fill="#131411"/>
</svg>
