<svg width="384" height="367" viewBox="0 0 384 367" fill="none" xmlns="http://www.w3.org/2000/svg">
<g opacity="0.05">
<path d="M232.217 364.621L221.293 367H296.702L290.712 364.709C285.983 362.487 281.755 359.326 278.287 355.418C274.819 351.509 272.182 346.935 270.538 341.975C242.348 278.797 176.365 130.499 172.225 121.687C168.084 112.876 164.032 104.064 160.508 95.8694V95.1643H117.694V97.5436C122.766 98.36 127.396 100.917 130.788 104.776C134.18 108.635 136.122 113.555 136.282 118.691V120.013C136.326 120.835 136.326 121.658 136.282 122.48C136.049 125.07 135.301 127.586 134.08 129.882C127.473 144.949 120.689 160.017 114.082 175.085C101.044 204.515 87.654 234.827 74.2636 264.61L69.5946 275.008C64.397 286.463 59.1995 298.006 54.002 309.372C52.3282 313.073 50.6543 317.039 48.9805 320.916L47.4828 324.705C46.1614 327.877 44.6638 331.225 43.0781 334.397C40.224 341.748 35.6711 348.318 29.7916 353.571C23.912 358.824 16.8729 362.611 9.24981 364.621L0 367H71.6209V364.621C67.6758 364.693 63.7677 363.847 60.2055 362.15C56.6433 360.452 53.5243 357.95 51.0947 354.84C49.8178 352.057 49.2087 349.015 49.3158 345.956C49.4228 342.896 50.2432 339.903 51.7114 337.217L71.0923 293.776C71.589 292.416 72.1775 291.091 72.8541 289.811L73.8232 287.52L75.497 284.26V283.819C76.3431 282.66 77.4235 281.693 78.6681 280.979C79.9127 280.266 81.2934 279.822 82.7206 279.678H86.9492H200.855H205.172C206.584 279.834 207.948 280.283 209.176 280.996C210.405 281.709 211.471 282.671 212.308 283.819L213.012 285.317C214.334 288.137 215.567 290.868 216.713 294.129C223.32 308.756 230.279 324.881 238.736 344.971C240.684 348.771 241.451 353.067 240.939 357.307C240.217 359.146 239.089 360.799 237.64 362.141C236.191 363.484 234.458 364.482 232.569 365.061M204.82 269.633C204.597 269.915 204.317 270.148 203.998 270.315C203.679 270.482 203.329 270.58 202.97 270.602H84.3944C84.0434 270.599 83.6987 270.509 83.3911 270.34C83.0835 270.171 82.8228 269.928 82.6327 269.633C82.476 269.302 82.3945 268.941 82.3945 268.575C82.3945 268.21 82.476 267.848 82.6327 267.518L142.008 135.345C142.165 134.958 142.432 134.626 142.777 134.39C143.122 134.155 143.529 134.027 143.946 134.023C144.356 134.008 144.761 134.119 145.107 134.339C145.453 134.559 145.724 134.879 145.884 135.257L162.446 172.529C175.484 202.048 192.398 240.026 204.82 267.958C204.953 268.28 205.022 268.624 205.022 268.972C205.022 269.319 204.953 269.664 204.82 269.985" fill="#131411"/>
<path d="M383.299 242.053C383.299 244.824 382.478 247.533 380.939 249.837C379.4 252.141 377.212 253.936 374.653 254.997C372.093 256.057 369.277 256.334 366.56 255.794C363.843 255.253 361.347 253.919 359.388 251.96C357.429 250 356.095 247.504 355.554 244.786C355.014 242.068 355.291 239.251 356.351 236.691C357.412 234.131 359.207 231.943 361.511 230.403C363.814 228.864 366.522 228.042 369.292 228.042C373.007 228.042 376.57 229.519 379.197 232.146C381.823 234.773 383.299 238.337 383.299 242.053Z" fill="#131411"/>
<path d="M383.299 352.99C383.299 355.761 382.478 358.47 380.939 360.774C379.4 363.078 377.212 364.873 374.653 365.934C372.093 366.994 369.277 367.271 366.56 366.731C363.843 366.19 361.347 364.856 359.388 362.897C357.429 360.937 356.095 358.441 355.554 355.723C355.014 353.005 355.291 350.188 356.351 347.628C357.412 345.068 359.207 342.88 361.511 341.341C363.814 339.801 366.522 338.979 369.292 338.979C373.007 338.979 376.57 340.456 379.197 343.083C381.823 345.71 383.299 349.274 383.299 352.99Z" fill="#131411"/>
<path d="M193.103 0L160.949 73.3119H150.642L182.708 0H193.103Z" fill="#131411"/>
</g>
</svg>
