<svg width="125" height="18" viewBox="0 0 125 18" fill="none" xmlns="http://www.w3.org/2000/svg">
<path d="M33.5791 11.3981C32.867 10.6253 31.9622 10.1476 30.6401 9.85239C30.5693 9.83685 30.4473 9.80969 30.3411 9.78253C30.4473 9.75144 30.5771 9.71266 30.7031 9.66996C31.0689 9.54562 31.6749 9.33979 32.0997 8.97869C32.6505 8.57473 32.9496 7.87577 32.8983 7.11463C32.8433 6.29918 32.4145 5.59237 31.7495 5.22342C31.2852 4.96704 30.5929 4.65649 29.9358 4.64864C29.6603 4.64472 29.3418 4.64095 28.9955 4.63702H25.7222C25.2107 4.63702 24.7346 4.64095 24.3333 4.64472C23.6015 4.64472 23.1177 4.64864 23.1177 4.64864L22.8542 4.65257L23.0942 4.76137C23.5662 4.97489 23.8062 5.40601 23.8062 6.04295C23.826 9.48376 23.8298 13.2313 23.8298 16.1167C23.8298 16.7536 23.8298 17.4721 23.0469 17.8837L22.8424 17.9925H23.0744C23.0942 17.9925 24.0895 18.0002 25.3366 18.0002C26.6822 18.0002 28.3227 17.9925 29.3418 17.9575C30.227 17.9264 31.1397 17.7672 31.9935 17.4953C33.1856 17.1147 34.0944 16.1478 34.4249 14.905C34.7632 13.6428 34.4447 12.3302 33.5791 11.3982M25.2738 9.19629C25.2816 8.78071 25.2816 8.35352 25.2778 7.94579V6.95167C25.2778 6.56718 25.2818 6.13229 25.2778 5.73618V5.41778C25.2778 5.19249 25.3211 5.08384 25.565 5.08384H29.0351C30.2232 5.08384 31.2305 5.9654 31.3328 7.09156V7.11479C31.4153 8.12069 31.073 8.90506 30.4004 9.26239C29.9951 9.47983 29.2123 9.55755 28.7873 9.55755H25.5612C25.3212 9.55755 25.278 9.45267 25.274 9.24684V9.19629H25.2738ZM32.9575 14.4002C32.8237 15.6818 32.513 16.5323 31.2973 17.1186C31.2776 17.1303 31.2304 17.1537 31.2265 17.1574C30.6915 17.3672 29.1886 17.5419 28.7873 17.5419H25.518C25.3252 17.5303 25.2702 17.4487 25.274 17.1846V16.8934C25.2818 16.171 25.2818 15.437 25.278 14.7263V13.072C25.278 12.2758 25.2819 11.4525 25.274 10.6564V10.3262C25.274 10.1903 25.2937 10.1127 25.3409 10.0661C25.3842 10.0234 25.455 10.0039 25.5612 10.0039H28.744C29.4364 10.0039 30.4004 10.2213 31.203 10.5631C32.3361 11.0407 32.9931 12.2485 32.9931 13.7865C32.9931 13.9846 32.9814 14.1904 32.9577 14.4" fill="#333333"/>
<path d="M11.5746 17.8757L11.0316 17.9921H14.777L14.478 17.8796C13.9271 17.6698 13.6714 17.1962 13.4746 16.765C12.074 13.666 8.79674 6.39616 8.5922 5.94949C8.38766 5.51068 8.18693 5.07956 8.0099 4.68345L7.99416 4.64844H5.86571L5.85792 4.76493C6.37325 4.84265 6.77852 5.30093 6.77852 5.80176V5.86393C6.77852 5.90271 6.78249 5.94934 6.77852 5.98827C6.76277 6.13978 6.73525 6.21733 6.67227 6.34937C6.34176 7.08727 6.00743 7.82893 5.67692 8.56683C5.03164 10.0076 4.36282 11.495 3.69798 12.9551L3.46592 13.4638C3.21017 14.027 2.95059 14.59 2.69086 15.1492C2.60831 15.3318 2.5256 15.5258 2.44305 15.7161L2.3683 15.8987C2.30134 16.0579 2.23056 16.221 2.14801 16.3763L2.14022 16.3918C1.84915 16.9938 1.42018 17.6384 0.460299 17.8753L0 17.9918H3.56056L3.56835 17.8753C3.04507 17.8171 2.70279 17.654 2.5493 17.3938C2.41951 17.1725 2.42731 16.8812 2.57682 16.5278L3.54068 14.3958C3.56819 14.3297 3.59571 14.2676 3.6272 14.2015C3.64692 14.1628 3.66267 14.1238 3.67842 14.089C3.70991 14.0347 3.73345 13.9841 3.76097 13.9298L3.76876 13.9103C3.81202 13.8133 4.00082 13.7161 4.12679 13.7045C4.19375 13.6968 4.26834 13.6929 4.33928 13.6889C4.3668 13.6889 4.39829 13.6889 4.42581 13.685H9.39478C9.54031 13.685 9.68203 13.6811 9.82756 13.685H9.91011C9.93763 13.6889 9.96514 13.6889 9.98884 13.6889H9.99663C10.0714 13.6929 10.1422 13.6966 10.2091 13.7045C10.3351 13.7161 10.5239 13.8133 10.5672 13.9103L10.6026 13.9841C10.6656 14.1201 10.7286 14.256 10.7836 14.3958C11.1141 15.1142 11.4604 15.9064 11.8774 16.8889C11.9562 17.0831 12.0427 17.3316 11.9877 17.4948C11.9364 17.6463 11.7556 17.8366 11.5746 17.8753M10.1937 13.1957C10.174 13.2228 10.1387 13.2423 10.1032 13.2423H4.22938C4.19391 13.2423 4.16241 13.2267 4.14285 13.1957C4.12313 13.1646 4.11931 13.1296 4.13506 13.0947L7.08183 6.59366C7.10155 6.55488 7.13686 6.53149 7.18013 6.53149C7.22339 6.53149 7.25886 6.55096 7.2746 6.58974L8.09691 8.41878C8.746 9.86726 9.58405 11.7275 10.2018 13.0985C10.2136 13.1296 10.2136 13.1646 10.194 13.1955" fill="#333333"/>
<path d="M115.251 16.2911C115.263 13.3162 115.251 6.29114 115.239 6.08908C115.223 5.68528 115.168 5.23469 114.759 4.92792C114.676 4.86182 114.574 4.8075 114.46 4.7571L114.2 4.64453L117.615 4.64846L117.391 4.75726C117.297 4.80389 117.206 4.86213 117.131 4.9243C116.663 5.29325 116.659 5.85641 116.659 6.34955C116.648 9.3553 116.652 15.266 116.652 15.5146V15.7398C116.656 16.0195 116.663 16.3961 116.667 16.5515C116.687 16.9709 116.742 17.4059 117.147 17.7127C117.234 17.7749 117.336 17.8331 117.45 17.8798L117.71 17.9923H114.295L114.515 17.8835C114.618 17.833 114.704 17.7747 114.779 17.7165C115.247 17.3436 115.247 16.7844 115.251 16.2912" fill="#333333"/>
<path d="M125 11.8681C125 12.2486 124.689 12.5593 124.304 12.5593C123.918 12.5593 123.607 12.2486 123.607 11.8681C123.607 11.4875 123.918 11.1807 124.304 11.1807C124.689 11.1807 125 11.4914 125 11.8681Z" fill="#333333"/>
<path d="M125 17.3048C125 17.6854 124.689 17.9922 124.304 17.9922C123.918 17.9922 123.607 17.6854 123.607 17.3048C123.607 16.9243 123.918 16.6175 124.304 16.6175C124.689 16.6175 125 16.9243 125 17.3048Z" fill="#333333"/>
<path d="M9.58246 0L7.98525 3.59608H7.47374L9.06713 0H9.58246Z" fill="#333333"/>
<path d="M9.98916 13.6893H4.33944C4.36696 13.6893 4.39845 13.6893 4.42597 13.6853H9.39494C9.54047 13.6853 9.68219 13.6814 9.82772 13.6853H9.91027C9.93779 13.6893 9.9653 13.6893 9.989 13.6893" fill="#333333"/>
<path d="M66.883 17.9736C66.5349 17.9578 66.1899 17.9157 65.8476 17.8498C65.0079 17.6871 64.2294 17.3748 63.5117 16.9147C62.7922 16.4529 62.1875 15.8771 61.7216 15.1629C61.1449 14.2782 60.8454 13.2991 60.7254 12.2615C60.6998 12.042 60.69 11.8208 60.6715 11.6005C60.6676 11.5539 60.6585 11.5078 60.6518 11.4614V10.9873C60.6593 10.9272 60.6707 10.8669 60.6734 10.8063C60.6903 10.4607 60.7325 10.1177 60.7997 9.77794C60.9772 8.88351 61.3305 8.06225 61.8514 7.31069C62.3026 6.66024 62.8577 6.1142 63.5329 5.68967C64.4591 5.10752 65.4854 4.78206 66.5705 4.67954C66.7299 4.66478 67.3082 4.64233 67.44 4.64264C67.6261 4.64264 67.9724 4.66399 68.158 4.67608C68.5636 4.71643 68.7772 4.74673 69.1608 4.83104C70.1559 5.05006 71.054 5.46752 71.844 6.10635C72.6156 6.72964 73.2057 7.48842 73.5992 8.39446C73.9351 9.16847 74.0862 9.98283 74.1436 10.8174C74.1559 10.9969 74.1559 11.1771 74.1589 11.3564C74.1664 11.7921 74.1365 12.2248 74.0633 12.6551C73.9288 13.4466 73.6609 14.1899 73.2536 14.8847C72.9081 15.4742 72.4844 16.0012 71.9627 16.4496C71.3254 16.9973 70.5968 17.3813 69.7913 17.6282C69.401 17.7479 69.0256 17.8565 68.62 17.9075C68.38 17.9374 67.9996 17.9992 66.8827 17.9736M72.6059 11.4311C72.5984 11.0933 72.5827 10.7562 72.5493 10.4194C72.5076 10.0001 72.4414 9.5853 72.3424 9.17522C72.1787 8.49839 71.9253 7.85721 71.5611 7.25983C71.2463 6.74408 70.8544 6.29789 70.3567 5.94558C69.6249 5.42795 68.8047 5.15493 67.9103 5.09621C67.5547 5.07298 67.1978 5.07486 66.8421 5.10281C66.431 5.13499 66.031 5.21852 65.6426 5.35401C64.9128 5.60803 64.2828 6.01105 63.7686 6.58394C63.4381 6.95132 63.1772 7.36486 62.9593 7.80524C62.6277 8.47516 62.4313 9.18511 62.3231 9.92065C62.2681 10.2943 62.2366 10.6702 62.222 11.0476C62.1968 11.6954 62.2369 12.3389 62.3561 12.977C62.4933 13.7125 62.7352 14.4123 63.0887 15.074C63.314 15.4962 63.5847 15.8873 63.9278 16.2243C64.7827 17.0632 65.8269 17.4717 67.0201 17.532C67.198 17.5409 67.3766 17.5351 67.5549 17.5367C67.9185 17.5402 68.2779 17.5037 68.6332 17.4268C69.293 17.2839 69.8966 17.0178 70.4371 16.6156C70.8706 16.2928 71.2207 15.8953 71.5143 15.4467C72.1092 14.5375 72.4322 13.5357 72.5569 12.4666C72.597 12.1229 72.6135 11.7776 72.6057 11.4311" fill="#333333"/>
<path d="M92.5303 5.91448C91.8535 5.24645 90.9604 4.81941 89.9533 4.68738C89.7566 4.66414 89.5795 4.6486 89.4103 4.64467C89.3671 4.64075 89.2215 4.64075 88.9185 4.64075H85.6688C85.0432 4.64075 84.4767 4.64075 83.9691 4.64467H82.3089L82.5529 4.75724C82.9777 4.95145 83.2177 5.35148 83.269 5.94165C83.2965 6.27951 83.2965 6.62506 83.3005 6.95916V9.35921C83.3005 11.6388 83.3005 13.996 83.2965 16.167V16.2137C83.2925 16.8661 83.2887 17.4836 82.5489 17.8835L82.3444 17.9923H85.7632L85.5154 17.8797C84.8544 17.5807 84.7561 17.0914 84.7443 16.6526C84.7286 15.7866 84.7168 14.7925 84.7089 13.8293C84.7011 13.1924 84.6971 12.5711 84.6891 12.0001V11.9885C84.7049 11.8332 84.7561 11.7476 84.9724 11.7476H85.2754L85.3266 11.7437C86.44 11.7553 87.5888 11.767 88.7102 11.7049C88.7614 11.7049 88.8204 11.701 88.8675 11.6972C88.8792 11.6972 88.891 11.6972 88.9029 11.6933H88.9344C89.7725 11.639 90.5671 11.4798 91.2281 11.235C92.3062 10.835 93.034 10.004 93.2778 8.88554C93.3329 8.63309 93.3604 8.37687 93.3604 8.12049C93.3604 7.26609 93.0614 6.43886 92.5303 5.91464M84.6853 5.7399V5.40596C84.6893 5.18852 84.7326 5.08757 84.9726 5.08757H89.2217C89.7017 5.08757 90.1463 5.19637 90.5003 5.40596C91.4799 5.97289 91.8262 6.96324 91.8262 7.95736C91.8262 8.4001 91.7592 8.83892 91.6452 9.24664C91.4957 9.7671 91.2517 10.202 90.9213 10.5398C90.4846 10.9903 89.4027 11.2583 88.0258 11.2583H84.9767C84.7367 11.2583 84.6895 11.1495 84.6857 10.936V10.4544C84.6857 10.3535 84.6896 10.2525 84.6857 10.1516C84.6934 9.65453 84.6896 9.14962 84.6896 8.64863V6.94377C84.6896 6.54374 84.6896 6.13994 84.6857 5.7399" fill="#333333"/>
<path d="M111.124 13.7475C111.002 13.1883 110.758 12.6989 110.412 12.3028C110.065 11.9028 109.613 11.596 109.074 11.398C108.413 11.1534 107.618 10.994 106.776 10.9397C106.769 10.9397 106.761 10.9397 106.753 10.9358H106.717C106.666 10.9319 106.611 10.9281 106.56 10.9281C105.439 10.8659 104.29 10.8776 103.18 10.8893L102.842 10.8854C102.602 10.8893 102.551 10.8039 102.535 10.6485V10.6329C102.543 10.0621 102.551 9.44069 102.555 8.80375C102.567 7.84071 102.575 6.84643 102.591 5.98042C102.602 5.54161 102.701 5.05224 103.366 4.75332L103.61 4.64075H100.195L100.395 4.74955C101.135 5.14958 101.139 5.76706 101.143 6.4194V6.46602C101.151 8.63686 101.151 10.9942 101.147 13.2738V15.6739C101.147 16.0078 101.143 16.3535 101.115 16.6914C101.068 17.2817 100.824 17.6818 100.399 17.8758L100.159 17.9884H101.764C102.276 17.9923 102.89 17.9923 103.515 17.9923H106.765C107.068 17.9923 107.217 17.9923 107.249 17.9884C107.426 17.9845 107.603 17.9689 107.8 17.9457C108.811 17.8136 109.7 17.3864 110.377 16.7186C111.065 16.0389 111.364 14.8467 111.124 13.7477M107.068 17.5458H102.819C102.579 17.5458 102.536 17.4409 102.532 17.2274V16.8935C102.536 16.4895 102.536 16.0896 102.536 15.6896V13.9847C102.54 13.4837 102.54 12.9788 102.532 12.4818C102.536 12.3808 102.536 12.2799 102.532 12.1789V11.6974C102.536 11.4839 102.583 11.3751 102.823 11.3751H105.872C107.249 11.3751 108.335 11.6431 108.771 12.0935C109.098 12.4314 109.342 12.8663 109.491 13.3867C109.605 13.7944 109.676 14.2372 109.676 14.676C109.676 15.6701 109.326 16.6605 108.35 17.2274C107.992 17.4372 107.548 17.5458 107.068 17.5458" fill="#333333"/>
<path d="M85.6689 4.69885C85.0434 4.69885 84.4296 4.69885 83.9182 4.70278V4.69885H85.6689Z" fill="#333333"/>
<path d="M83.8592 4.76165V4.64468L83.9182 4.64044H85.6689V4.75694C85.0434 4.75694 84.4301 4.75694 83.9185 4.76117L83.8592 4.76149V4.76165Z" fill="#333333"/>
<path d="M53.3489 4.98253V5.00969C53.3489 5.03293 53.3529 5.05632 53.3489 5.08348C53.3411 6.02721 53.3371 6.69901 53.3371 6.69901V6.85821L53.2348 6.73779C52.987 6.45048 52.8021 6.23288 52.4991 6.02328C51.2402 5.17282 50.5319 5.0951 48.675 5.07956C48.3996 5.07956 48.372 5.47959 48.372 5.65041V5.94949C48.3759 7.47961 48.3759 9.00973 48.3759 10.5436C48.3759 12.4543 48.3759 14.3689 48.3837 16.2834C48.3877 16.8931 48.3915 17.5222 49.1353 17.8794L49.3635 17.992H46.0272L46.2554 17.8794C46.999 17.5221 47.003 16.893 47.007 16.2834C47.0148 14.3688 47.0148 12.4543 47.0148 10.5436C47.0148 9.00957 47.0148 7.47961 47.0187 5.94949V5.65041C47.0187 5.47959 46.9912 5.07956 46.7157 5.07956C44.8588 5.0951 44.1505 5.17282 42.8916 6.02328C42.5886 6.23303 42.4038 6.45048 42.1678 6.72617L42.0615 6.84659L42.0537 6.69901C42.0537 6.69901 42.0498 6.02721 42.042 5.07563C42.038 5.05616 42.038 5.03293 42.042 5.00954V4.9863C42.0655 4.65236 42.345 4.65613 42.5416 4.65613H42.5731C43.4189 4.66005 44.2687 4.65613 45.1146 4.65613H50.2763C51.1221 4.65613 51.972 4.66005 52.8178 4.65613H52.8768C53.0775 4.65613 53.3293 4.66775 53.3489 4.98237" fill="#333333"/>
</svg>
