<svg width="35" height="39" viewBox="0 0 35 39" fill="none" xmlns="http://www.w3.org/2000/svg">
<path d="M35 17.4255C35 26.1081 28.6227 33.3075 20.2778 34.6328C19.3731 34.7764 17.5 39 17.5 39C17.5 39 15.6269 34.7764 14.7222 34.6328C6.37733 33.3075 0 26.1081 0 17.4255C0 7.80168 7.83502 0 17.5 0C27.165 0 35 7.80168 35 17.4255Z" fill="#131411"/>
<path d="M19.7314 26.061L19.1304 26.1919H23.2793L22.9497 26.0658C22.6895 25.9436 22.4569 25.7697 22.2661 25.5546C22.0753 25.3396 21.9302 25.088 21.8397 24.8151C20.2888 21.3391 16.6585 13.1799 16.4307 12.6951C16.2029 12.2103 15.9799 11.7255 15.786 11.2746V11.2358H13.4305V11.3667C13.7095 11.4117 13.9642 11.5524 14.1508 11.7647C14.3375 11.977 14.4444 12.2477 14.4532 12.5303V12.603C14.4556 12.6482 14.4556 12.6935 14.4532 12.7387C14.4403 12.8812 14.3991 13.0197 14.332 13.1459C13.9685 13.975 13.5953 14.804 13.2317 15.633C12.5144 17.2522 11.7777 18.9199 11.041 20.5585L10.7841 21.1306C10.4981 21.7608 10.2122 22.3959 9.9262 23.0213C9.83411 23.2249 9.74202 23.4431 9.64993 23.6564L9.56752 23.8649C9.49482 24.0394 9.41242 24.2236 9.32518 24.3981C9.16815 24.8026 8.91766 25.164 8.59417 25.4531C8.27069 25.7421 7.8834 25.9504 7.46399 26.061L6.95508 26.1919H10.8956V26.061C10.6785 26.065 10.4635 26.0184 10.2675 25.925C10.0715 25.8316 9.89992 25.694 9.76624 25.5229C9.69599 25.3698 9.66248 25.2024 9.66837 25.0341C9.67426 24.8657 9.71939 24.7011 9.80018 24.5533L10.8665 22.1632C10.8938 22.0884 10.9262 22.0155 10.9634 21.945L11.0167 21.819L11.1088 21.6396V21.6154C11.1554 21.5516 11.2148 21.4984 11.2833 21.4591C11.3518 21.4199 11.4277 21.3955 11.5063 21.3875H11.7389H18.0059H18.2434C18.3211 21.3961 18.3961 21.4208 18.4637 21.4601C18.5313 21.4993 18.59 21.5522 18.636 21.6154L18.6748 21.6978C18.7475 21.8529 18.8153 22.0032 18.8783 22.1826C19.2418 22.9874 19.6247 23.8746 20.09 24.9799C20.1972 25.189 20.2394 25.4253 20.2112 25.6586C20.1715 25.7598 20.1095 25.8507 20.0297 25.9246C19.95 25.9984 19.8547 26.0534 19.7508 26.0852M18.224 20.8349C18.2117 20.8504 18.1963 20.8632 18.1788 20.8724C18.1613 20.8816 18.142 20.887 18.1222 20.8882H11.5984C11.579 20.888 11.5601 20.8831 11.5432 20.8738C11.5262 20.8645 11.5119 20.8511 11.5014 20.8349C11.4928 20.8167 11.4883 20.7968 11.4883 20.7767C11.4883 20.7566 11.4928 20.7367 11.5014 20.7185L14.7682 13.4465C14.7768 13.4252 14.7915 13.407 14.8105 13.394C14.8295 13.3811 14.8519 13.374 14.8748 13.3738C14.8974 13.373 14.9196 13.3791 14.9387 13.3912C14.9577 13.4033 14.9726 13.4209 14.9815 13.4417L15.8927 15.4924C16.61 17.1164 17.5406 19.2059 18.224 20.7428C18.2313 20.7604 18.2351 20.7794 18.2351 20.7985C18.2351 20.8176 18.2313 20.8366 18.224 20.8542" fill="white"/>
<path d="M28.0413 19.3175C28.0413 19.4699 27.9961 19.619 27.9114 19.7457C27.8267 19.8725 27.7064 19.9713 27.5656 20.0296C27.4248 20.088 27.2698 20.1032 27.1203 20.0735C26.9708 20.0437 26.8335 19.9703 26.7257 19.8625C26.6179 19.7547 26.5445 19.6174 26.5148 19.4678C26.4851 19.3183 26.5003 19.1633 26.5587 19.0225C26.617 18.8816 26.7158 18.7612 26.8425 18.6765C26.9692 18.5918 27.1182 18.5466 27.2706 18.5466C27.475 18.5466 27.6711 18.6278 27.8156 18.7724C27.9601 18.917 28.0413 19.113 28.0413 19.3175Z" fill="white"/>
<path d="M28.0413 25.4212C28.0413 25.5737 27.9961 25.7227 27.9114 25.8495C27.8267 25.9762 27.7064 26.075 27.5656 26.1334C27.4248 26.1917 27.2698 26.207 27.1203 26.1772C26.9708 26.1475 26.8335 26.0741 26.7257 25.9663C26.6179 25.8585 26.5445 25.7211 26.5148 25.5716C26.4851 25.4221 26.5003 25.2671 26.5587 25.1262C26.617 24.9854 26.7158 24.865 26.8425 24.7803C26.9692 24.6956 27.1182 24.6504 27.2706 24.6504C27.475 24.6504 27.6711 24.7316 27.8156 24.8762C27.9601 25.0207 28.0413 25.2168 28.0413 25.4212Z" fill="white"/>
<path d="M17.5803 6L15.8112 10.0335H15.2441L17.0084 6H17.5803Z" fill="white"/>
</svg>
