<svg width="455" height="560" viewBox="0 0 455 560" fill="none" xmlns="http://www.w3.org/2000/svg">
<g opacity="0.03">
<path d="M245.856 112.424L294.848 0H279.01L230.151 112.424H245.856Z" fill="black"/>
<path fill-rule="evenodd" clip-rule="evenodd" d="M355.529 556.456L339.16 560H455L445.83 556.514C438.588 553.116 432.109 548.301 426.78 542.357C421.451 536.414 417.381 529.464 414.813 521.922C394.737 477.073 362.109 404.307 332.316 337.862C298.07 261.488 267.57 193.466 264.181 185.794C261.273 179.212 258.393 173.025 255.607 167.039C252.321 159.978 249.164 153.197 246.245 146.376V145.303H180.57V148.923C188.332 150.198 195.405 154.121 200.573 160.017C205.741 165.914 208.682 173.417 208.89 181.235V183.113C208.957 184.408 208.957 185.706 208.89 187.001C208.599 190.893 207.496 194.683 205.653 198.129L174.907 267.044C155.083 311.826 134.45 358.082 113.817 403.534L106.67 419.22C101.112 431.702 95.4174 444.115 89.732 456.51C87.4168 461.557 85.1032 466.6 82.8008 471.644C80.2407 477.27 77.6808 483.298 75.1207 489.327L75.1142 489.342L72.8217 494.973C70.7989 499.934 68.6412 505.029 66.0789 509.856C61.7466 521.077 54.7907 531.111 45.7863 539.131C36.782 547.151 25.9876 552.926 14.2948 555.978L0 559.598H109.907V555.978C103.856 556.072 97.8668 554.764 92.413 552.157C86.9592 549.551 82.1909 545.718 78.4856 540.961C76.4894 536.744 75.5224 532.117 75.663 527.458C75.8036 522.798 77.0478 518.238 79.2947 514.146L111.66 441.745C112.053 441.041 112.355 440.336 112.645 439.658C112.852 439.175 113.054 438.706 113.278 438.259C113.465 437.888 113.732 437.388 114.036 436.821C114.609 435.75 115.311 434.438 115.84 433.298C117.128 431.516 118.778 430.023 120.683 428.914C122.587 427.806 124.705 427.107 126.898 426.863H313.268C315.461 427.107 317.578 427.806 319.483 428.914C321.388 430.023 323.038 431.516 324.326 433.298L325.405 435.577C327.427 439.868 329.315 444.024 331.068 448.315C341.183 470.706 351.836 495.375 364.782 525.811C367.831 531.619 369.008 538.219 368.154 544.716C367.049 547.514 365.323 550.028 363.104 552.071C360.934 554.07 358.347 555.567 355.529 556.456ZM311.626 412.119C312.118 411.862 312.543 411.493 312.863 411.042L313.537 409.835C313.774 409.379 313.897 408.873 313.897 408.36C313.897 407.847 313.774 407.341 313.537 406.885C307.657 393.699 301.118 379.064 294.301 363.805C279.075 329.724 262.458 292.53 248.672 261.413L223.589 205.771C223.339 205.21 222.918 204.74 222.386 204.428C221.855 204.115 221.238 203.976 220.622 204.028C219.995 204.006 219.375 204.173 218.846 204.508C218.316 204.843 217.901 205.331 217.656 205.905L126.629 407.958C126.391 408.437 126.267 408.965 126.267 409.5C126.267 410.035 126.391 410.562 126.629 411.042C126.899 411.509 127.294 411.894 127.77 412.154C128.245 412.414 128.784 412.539 129.326 412.516H310.031C310.587 412.511 311.134 412.375 311.626 412.119Z" fill="black"/>
</g>
</svg>
