<svg width="448" height="430" viewBox="0 0 448 430" fill="none" xmlns="http://www.w3.org/2000/svg">
<g opacity="0.05">
<path d="M271.415 426.694L258.648 429.474H346.785L339.784 426.797C334.257 424.2 329.316 420.505 325.262 415.937C321.208 411.369 318.127 406.023 316.205 400.226C283.256 326.382 206.135 153.052 201.296 142.753C196.457 132.454 191.72 122.155 187.602 112.577V111.753H137.561V114.534C143.489 115.488 148.9 118.477 152.864 122.988C156.829 127.498 159.1 133.249 159.287 139.251V140.796C159.338 141.757 159.338 142.719 159.287 143.68C159.015 146.707 158.139 149.648 156.712 152.331C148.99 169.942 141.062 187.553 133.339 205.164C118.1 239.563 102.45 274.991 86.7993 309.801L81.3421 321.954C75.2672 335.342 69.1924 348.834 63.1175 362.12C61.1611 366.445 59.2047 371.08 57.2484 375.611L55.4979 380.04C53.9534 383.747 52.203 387.661 50.3496 391.369C47.0138 399.96 41.6924 407.639 34.8204 413.779C27.9484 419.919 19.721 424.344 10.8112 426.694L0 429.474H83.7104V426.694C79.0994 426.778 74.5317 425.789 70.3682 423.805C66.2047 421.822 62.5592 418.897 59.7195 415.262C58.227 412.01 57.5151 408.454 57.6402 404.878C57.7654 401.302 58.7242 397.804 60.4403 394.664L83.0927 343.891C83.6731 342.301 84.361 340.752 85.1518 339.256L86.2846 336.578L88.2409 332.768V332.253C89.2297 330.898 90.4925 329.767 91.9472 328.933C93.4019 328.1 95.0156 327.581 96.6838 327.412H101.626H234.76H239.805C241.455 327.595 243.049 328.12 244.485 328.953C245.921 329.787 247.168 330.91 248.145 332.253L248.969 334.004C250.513 337.299 251.955 340.492 253.294 344.303C261.016 361.399 269.15 380.246 279.035 403.727C281.311 408.169 282.207 413.19 281.609 418.146C280.765 420.295 279.447 422.227 277.754 423.796C276.06 425.365 274.034 426.532 271.827 427.209M239.393 315.672C239.133 316.002 238.806 316.274 238.433 316.469C238.06 316.664 237.651 316.779 237.231 316.804H98.6401C98.2299 316.801 97.827 316.696 97.4675 316.499C97.1079 316.301 96.8033 316.017 96.581 315.672C96.3979 315.285 96.3026 314.863 96.3026 314.436C96.3026 314.008 96.3979 313.586 96.581 313.2L165.979 158.716C166.162 158.264 166.475 157.876 166.878 157.601C167.281 157.326 167.757 157.176 168.244 157.171C168.724 157.154 169.197 157.283 169.601 157.54C170.005 157.798 170.322 158.172 170.51 158.613L189.867 202.178C205.106 236.679 224.875 281.067 239.393 313.715C239.549 314.09 239.629 314.493 239.629 314.899C239.629 315.306 239.549 315.708 239.393 316.083" fill="#131411"/>
<path d="M448 283.436C448 286.675 447.04 289.841 445.241 292.534C443.442 295.227 440.885 297.325 437.894 298.565C434.902 299.804 431.61 300.128 428.434 299.497C425.259 298.865 422.341 297.305 420.052 295.015C417.762 292.725 416.203 289.807 415.571 286.631C414.94 283.454 415.264 280.162 416.503 277.17C417.742 274.177 419.841 271.62 422.533 269.82C425.225 268.021 428.39 267.061 431.628 267.061C435.97 267.061 440.134 268.786 443.205 271.857C446.275 274.928 448 279.093 448 283.436Z" fill="#131411"/>
<path d="M448 413.099C448 416.338 447.04 419.504 445.241 422.197C443.442 424.89 440.885 426.989 437.894 428.228C434.902 429.467 431.61 429.792 428.434 429.16C425.259 428.528 422.341 426.969 420.052 424.678C417.762 422.388 416.203 419.47 415.571 416.294C414.94 413.117 415.264 409.825 416.503 406.833C417.742 403.841 419.841 401.283 422.533 399.484C425.225 397.685 428.39 396.724 431.628 396.724C435.97 396.724 440.134 398.449 443.205 401.52C446.275 404.591 448 408.756 448 413.099Z" fill="#131411"/>
<path d="M225.699 0.525146L188.117 86.2121H176.07L213.549 0.525146H225.699Z" fill="#131411"/>
</g>
</svg>
