<svg width="124" height="124" viewBox="0 0 124 124" fill="none" xmlns="http://www.w3.org/2000/svg">
<path fill-rule="evenodd" clip-rule="evenodd" d="M119.654 3.26685H54.4815V4.26685H119.154V25.8252V119.574H98.0973V101.525V101.025V65.9321H97.0973V100.525H74.5362H74.0362V101.025V111.051V119.574H62.0017V87.4879H77.5442V86.4879H61.5017H50.4726H45.4593V87.4879H50.4726H61.0017V119.574H48.9673V101.025V100.525H48.4673H25.9062V65.9321H24.9062V101.025V101.525V119.574H3.84615V100.523V80.9711V3.76685H2.84615V80.9711V100.523V120.074V120.574H3.34615H24.9062V121.078H25.9062V120.574H47.9673V121.078H48.9673V120.574H61.0017V121.078H62.0017V120.574H74.0362V121.078H75.0362V120.574H97.0973V121.078H98.0973V120.574H119.654H120.154V120.074V25.8252V3.76685V3.26685H119.654ZM97.0973 119.574V101.525H75.0362V111.051V119.574H97.0973ZM47.9673 119.574V101.525H25.9062V119.574H47.9673ZM54.4815 20.312H53.9815V20.812V34.849V35.349H54.4815H68.5185H69.0185V34.849V20.812V20.312H68.5185H54.4815ZM54.9815 34.349V21.312H68.0185V34.349H54.9815Z" fill="#A6A6A6"/>
</svg>
