<svg width="437" height="64" viewBox="0 0 437 64" fill="none" xmlns="http://www.w3.org/2000/svg">
<path d="M117.393 40.5263C114.904 37.7787 111.74 36.08 107.118 35.0306C106.871 34.9753 106.444 34.8788 106.073 34.7822C106.444 34.6717 106.898 34.5338 107.338 34.3819C108.617 33.9398 110.736 33.208 112.221 31.9241C114.147 30.4878 115.192 28.0026 115.013 25.2963C114.821 22.3969 113.322 19.8838 110.997 18.572C109.374 17.6604 106.953 16.5563 104.656 16.5284C103.693 16.5144 102.579 16.501 101.369 16.4871H89.9252C88.137 16.4871 86.4727 16.501 85.0698 16.5144C82.5114 16.5144 80.8199 16.5284 80.8199 16.5284L79.8986 16.5423L80.7376 16.9292C82.388 17.6884 83.2271 19.2212 83.2271 21.4859C83.296 33.7199 83.3094 47.0446 83.3094 57.3036C83.3094 59.5683 83.3094 62.1227 80.5725 63.5864L79.8574 63.9732H80.6687C80.7376 63.9732 84.2174 64.0006 88.5774 64.0006C93.2816 64.0006 99.0166 63.9732 102.579 63.8487C105.674 63.7382 108.865 63.1722 111.85 62.2053C116.017 60.8522 119.195 57.4141 120.35 52.9953C121.533 48.5077 120.419 43.8404 117.393 40.5268M88.3577 32.6978C88.385 31.2202 88.385 29.7013 88.3716 28.2516V24.7169C88.3716 23.3498 88.3855 21.8036 88.3716 20.3952V19.2631C88.3716 18.462 88.5229 18.0758 89.3759 18.0758H101.507C105.661 18.0758 109.182 21.2102 109.54 25.2143V25.2969C109.828 28.8734 108.632 31.6623 106.28 32.9328C104.863 33.7059 102.127 33.9823 100.641 33.9823H89.3625C88.5234 33.9823 88.3722 33.6094 88.3583 32.8775V32.6978H88.3577ZM115.22 51.2006C114.752 55.7573 113.666 58.7812 109.416 60.8662C109.347 60.9075 109.182 60.9906 109.168 61.004C107.298 61.7498 102.044 62.3711 100.641 62.3711H89.2113C88.5373 62.3298 88.345 62.0395 88.3583 61.1006V60.0651C88.3855 57.4967 88.3855 54.8871 88.3722 52.36V46.478C88.3722 43.6473 88.3861 40.72 88.3583 37.8892V36.7153C88.3583 36.2319 88.4272 35.9561 88.5924 35.7903C88.7436 35.6385 88.9911 35.5693 89.3625 35.5693H100.49C102.91 35.5693 106.28 36.3424 109.086 37.5577C113.047 39.2558 115.344 43.5502 115.344 49.0185C115.344 49.723 115.303 50.4548 115.22 51.2" fill="#131411"/>
<path d="M40.4648 63.5579L38.5664 63.9721H51.6603L50.6149 63.5719C48.6893 62.8261 47.7952 61.1419 47.1074 59.6091C42.2108 48.5904 30.7534 22.7419 30.0383 21.1538C29.3232 19.5936 28.6215 18.0607 28.0026 16.6523L27.9476 16.5278H20.5065L20.4793 16.942C22.2809 17.2184 23.6977 18.8478 23.6977 20.6285V20.8496C23.6977 20.9875 23.7116 21.1533 23.6977 21.2917C23.6426 21.8304 23.5464 22.1061 23.3263 22.5756C22.1708 25.1992 21.002 27.8363 19.8465 30.4599C17.5906 35.5827 15.2524 40.8713 12.9281 46.0627L12.1169 47.8714C11.2227 49.8737 10.3153 51.8755 9.40724 53.8639C9.11865 54.5131 8.8295 55.203 8.54091 55.8796L8.27957 56.5288C8.04547 57.0948 7.79803 57.6748 7.50944 58.2269L7.48219 58.2822C6.46463 60.4224 4.96496 62.7145 1.60921 63.5568L0 63.971H12.4477L12.475 63.5568C10.6456 63.3497 9.44894 62.7697 8.91235 61.8447C8.45862 61.0577 8.48586 60.0222 9.00855 58.7656L12.3782 51.185C12.4744 50.95 12.5706 50.7295 12.6807 50.4944C12.7496 50.3566 12.8047 50.2181 12.8597 50.0942C12.9698 49.9011 13.0521 49.7213 13.1483 49.5282L13.1756 49.4589C13.3268 49.114 13.9869 48.7684 14.4272 48.7271C14.6613 48.6998 14.9221 48.6858 15.1701 48.6719C15.2663 48.6719 15.3764 48.6719 15.4726 48.6579H32.8441C33.3529 48.6579 33.8484 48.6439 34.3572 48.6579H34.6457C34.7419 48.6719 34.8381 48.6719 34.921 48.6719H34.9482C35.2096 48.6858 35.457 48.6992 35.6911 48.7271C36.1315 48.7684 36.7915 49.114 36.9428 49.4589L37.0668 49.7213C37.287 50.2047 37.5072 50.6881 37.6996 51.185C38.855 53.7394 40.0656 56.5562 41.5235 60.0495C41.7988 60.74 42.1012 61.6237 41.9089 62.2037C41.7298 62.7424 41.0976 63.4189 40.4648 63.5568M35.6372 46.9179C35.5682 47.0145 35.4448 47.0837 35.3208 47.0837H14.7859C14.6619 47.0837 14.5518 47.0285 14.4834 46.9179C14.4145 46.8074 14.4011 46.6829 14.4562 46.559L24.7581 23.4442C24.827 23.3063 24.9505 23.2231 25.1017 23.2231C25.253 23.2231 25.377 23.2924 25.432 23.4302L28.3068 29.9335C30.576 35.0836 33.5058 41.698 35.6655 46.5724C35.7067 46.6829 35.7067 46.8074 35.6383 46.9174" fill="#131411"/>
<path d="M402.917 57.9239C402.958 47.3467 402.917 22.3685 402.876 21.6501C402.821 20.2144 402.628 18.6123 401.198 17.5215C400.908 17.2865 400.551 17.0933 400.152 16.9142L399.244 16.5139L411.183 16.5279L410.399 16.9147C410.069 17.0805 409.752 17.2876 409.492 17.5087C407.855 18.8205 407.841 20.8228 407.841 22.5762C407.8 33.2633 407.814 54.2792 407.814 55.1629V55.9639C407.828 56.9581 407.855 58.2973 407.869 58.8499C407.938 60.3409 408.13 61.8878 409.547 62.9785C409.85 63.1996 410.207 63.4067 410.606 63.5725L411.514 63.9727H399.576L400.346 63.5859C400.703 63.4061 401.006 63.199 401.267 62.9919C402.904 61.6662 402.904 59.6778 402.917 57.9244" fill="#131411"/>
<path d="M437 42.1976C437 43.5507 435.913 44.6554 434.565 44.6554C433.217 44.6554 432.131 43.5507 432.131 42.1976C432.131 40.8444 433.217 39.7537 434.565 39.7537C435.913 39.7537 437 40.8584 437 42.1976Z" fill="#131411"/>
<path d="M437 61.5284C437 62.8815 435.913 63.9723 434.565 63.9723C433.217 63.9723 432.131 62.8815 432.131 61.5284C432.131 60.1752 433.217 59.0845 434.565 59.0845C435.913 59.0845 437 60.1752 437 61.5284Z" fill="#131411"/>
<path d="M33.5 0L27.9162 12.786H26.1279L31.6984 0H33.5Z" fill="#131411"/>
<path d="M34.9223 48.673H15.1709C15.2671 48.673 15.3772 48.673 15.4734 48.659H32.8449C33.3537 48.659 33.8491 48.6451 34.3579 48.659H34.6465C34.7427 48.673 34.8389 48.673 34.9218 48.673" fill="#131411"/>
<path d="M233.823 63.9064C232.606 63.85 231.4 63.7004 230.204 63.466C227.268 62.8877 224.546 61.7774 222.037 60.1412C219.522 58.4995 217.408 56.4519 215.779 53.9126C213.763 50.767 212.716 47.2859 212.297 43.5967C212.207 42.8163 212.173 42.0297 212.108 41.2466C212.094 41.0808 212.062 40.9167 212.039 40.752V39.0662C212.065 38.8524 212.105 38.638 212.115 38.4225C212.174 37.1939 212.321 35.9742 212.556 34.7662C213.177 31.586 214.412 28.6659 216.233 25.9937C217.81 23.681 219.751 21.7395 222.111 20.2301C225.349 18.1602 228.937 17.003 232.731 16.6385C233.288 16.586 235.31 16.5062 235.771 16.5073C236.421 16.5073 237.632 16.5833 238.281 16.6262C239.699 16.7697 240.445 16.8774 241.787 17.1772C245.265 17.9559 248.405 19.4402 251.167 21.7116C253.865 23.9278 255.927 26.6256 257.303 29.8471C258.477 32.5992 259.006 35.4947 259.206 38.4622C259.249 39.1002 259.249 39.741 259.26 40.3785C259.286 41.9276 259.181 43.466 258.926 44.9961C258.455 47.8101 257.519 50.4533 256.095 52.9234C254.887 55.0195 253.406 56.8935 251.582 58.4878C249.354 60.4348 246.807 61.8002 243.991 62.6783C242.626 63.1037 241.314 63.49 239.896 63.6714C239.057 63.7775 237.727 63.9974 233.822 63.9064M253.831 40.6442C253.804 39.4429 253.749 38.2444 253.633 37.0471C253.487 35.5561 253.256 34.0812 252.909 32.6232C252.337 30.2167 251.451 27.9369 250.178 25.8129C249.077 23.9791 247.707 22.3927 245.967 21.14C243.409 19.2996 240.542 18.3288 237.415 18.12C236.172 18.0374 234.924 18.0441 233.68 18.1435C232.243 18.2579 230.845 18.5549 229.487 19.0366C226.936 19.9398 224.733 21.3728 222.935 23.4097C221.78 24.716 220.868 26.1863 220.106 27.7521C218.947 30.1341 218.26 32.6583 217.882 35.2736C217.69 36.6022 217.58 37.9385 217.528 39.2805C217.441 41.5837 217.581 43.8719 217.997 46.1405C218.477 48.7557 219.323 51.2437 220.558 53.5966C221.346 55.0977 222.293 56.4882 223.492 57.6867C226.481 60.6693 230.131 62.1218 234.303 62.3361C234.924 62.368 235.549 62.3473 236.172 62.3529C237.443 62.3652 238.7 62.2357 239.942 61.9621C242.249 61.4541 244.359 60.508 246.248 59.0778C247.764 57.9301 248.988 56.5167 250.014 54.9218C252.094 51.6892 253.223 48.1272 253.659 44.3257C253.799 43.1038 253.857 41.8762 253.83 40.6442" fill="#131411"/>
<path d="M323.486 21.0293C321.12 18.6541 317.998 17.1357 314.477 16.6663C313.789 16.5837 313.17 16.5284 312.578 16.5144C312.427 16.5005 311.918 16.5005 310.859 16.5005H299.498C297.311 16.5005 295.33 16.5005 293.556 16.5144H287.752L288.605 16.9147C290.09 17.6052 290.929 19.0276 291.108 21.1259C291.204 22.3272 291.204 23.5558 291.218 24.7437V33.2773C291.218 41.3826 291.218 49.7637 291.204 57.4828V57.6486C291.191 59.9686 291.177 62.1641 288.591 63.5858L287.876 63.9727H299.828L298.962 63.5724C296.651 62.509 296.307 60.7696 296.266 59.2094C296.211 56.1303 296.17 52.5956 296.142 49.1709C296.115 46.9062 296.101 44.6973 296.073 42.6671V42.6258C296.128 42.0737 296.307 41.7695 297.064 41.7695H298.123L298.302 41.7555C302.194 41.7968 306.211 41.8381 310.131 41.6176C310.31 41.6176 310.516 41.6037 310.681 41.5903C310.722 41.5903 310.763 41.5903 310.805 41.5763H310.915C313.845 41.3832 316.623 40.8171 318.934 39.9469C322.702 38.5245 325.247 35.5699 326.099 31.5931C326.292 30.6955 326.388 29.7845 326.388 28.8729C326.388 25.8351 325.343 22.8938 323.486 21.0299M296.06 20.4086V19.2213C296.074 18.4481 296.225 18.0892 297.064 18.0892H311.919C313.597 18.0892 315.151 18.476 316.389 19.2213C319.814 21.237 321.024 24.7582 321.024 28.2929C321.024 29.8671 320.79 31.4273 320.391 32.877C319.869 34.7275 319.016 36.2738 317.861 37.4751C316.334 39.0766 312.552 40.0295 307.738 40.0295H297.079C296.239 40.0295 296.074 39.6426 296.061 38.8835V37.1714C296.061 36.8125 296.075 36.4535 296.061 36.0946C296.088 34.3273 296.075 32.532 296.075 30.7507V24.689C296.075 23.2667 296.075 21.8309 296.061 20.4086" fill="#131411"/>
<path d="M388.489 48.8801C388.063 46.8917 387.21 45.1517 386 43.7433C384.789 42.321 383.208 41.2302 381.323 40.5263C379.012 39.6566 376.234 39.09 373.291 38.8969C373.263 38.8969 373.235 38.8969 373.208 38.8829H373.084C372.905 38.8689 372.713 38.8556 372.534 38.8556C368.614 38.6345 364.598 38.6758 360.719 38.7177L359.537 38.7037C358.698 38.7177 358.519 38.414 358.464 37.8614V37.8061C358.492 35.7764 358.519 33.567 358.533 31.3023C358.574 27.8781 358.602 24.3429 358.657 21.2638C358.698 19.7036 359.042 17.9636 361.367 16.9007L362.22 16.5005H350.281L350.982 16.8873C353.568 18.3097 353.582 20.5052 353.596 22.8246V22.9904C353.624 30.7089 353.624 39.0906 353.61 47.1959V55.7294C353.61 56.9168 353.596 58.146 353.5 59.3473C353.334 61.4462 352.482 62.8685 350.996 63.5585L350.157 63.9587H355.769C357.557 63.9727 359.702 63.9727 361.889 63.9727H373.251C374.31 63.9727 374.832 63.9727 374.943 63.9587C375.561 63.9448 376.18 63.8895 376.868 63.8069C380.403 63.3374 383.511 61.8185 385.877 59.4438C388.284 57.0273 389.33 52.7882 388.491 48.8806M374.31 62.3851H359.455C358.616 62.3851 358.465 62.0122 358.451 61.253V60.0657C358.465 58.6294 358.465 57.2076 358.465 55.7853V49.7236C358.479 47.9423 358.479 46.147 358.451 44.3797C358.465 44.0208 358.465 43.6618 358.451 43.3029V41.5908C358.465 40.8317 358.63 40.4448 359.469 40.4448H370.128C374.942 40.4448 378.738 41.3977 380.265 42.9992C381.407 44.2005 382.26 45.7468 382.782 47.5973C383.181 49.047 383.429 50.6212 383.429 52.1814C383.429 55.7161 382.205 59.2373 378.794 61.253C377.542 61.9988 375.988 62.3851 374.31 62.3851" fill="#131411"/>
<path d="M299.498 16.707C297.311 16.707 295.166 16.707 293.378 16.721V16.707H299.498Z" fill="#131411"/>
<path d="M293.172 16.9302V16.5143L293.378 16.4993H299.499V16.9135C297.312 16.9135 295.168 16.9135 293.379 16.9285L293.172 16.9297V16.9302Z" fill="#131411"/>
<path d="M186.508 17.7157V17.8123C186.508 17.8949 186.522 17.9781 186.508 18.0747C186.481 21.4301 186.467 23.8187 186.467 23.8187V24.3848L186.109 23.9566C185.243 22.9351 184.596 22.1614 183.537 21.4162C179.136 18.3923 176.66 18.116 170.168 18.0607C169.206 18.0607 169.109 19.483 169.109 20.0904V21.1538C169.123 26.5942 169.123 32.0346 169.123 37.4885C169.123 44.282 169.123 51.0895 169.15 57.8965C169.164 60.0646 169.177 62.3014 171.777 63.5713L172.575 63.9716H160.912L161.709 63.5713C164.309 62.3008 164.323 60.064 164.337 57.8965C164.364 51.0889 164.364 44.282 164.364 37.4885C164.364 32.0341 164.364 26.5942 164.378 21.1538V20.0904C164.378 19.483 164.282 18.0607 163.319 18.0607C156.827 18.116 154.351 18.3923 149.95 21.4162C148.89 22.1619 148.244 22.9351 147.419 23.9153L147.048 24.3435L147.02 23.8187C147.02 23.8187 147.006 21.4301 146.979 18.0467C146.965 17.9775 146.965 17.8949 146.979 17.8117V17.7291C147.061 16.5418 148.038 16.5552 148.726 16.5552H148.836C151.793 16.5691 154.764 16.5552 157.721 16.5552H175.766C178.723 16.5552 181.694 16.5691 184.651 16.5552H184.858C185.56 16.5552 186.44 16.5965 186.508 17.7152" fill="#131411"/>
</svg>
